<?xml version="1.0" encoding="UTF-8"?>
<svg version="1.1" xmlns="http://www.w3.org/2000/svg" width="1200" height="440">
<path d="M0 0 C396 0 792 0 1200 0 C1200 145.2 1200 290.4 1200 440 C804 440 408 440 0 440 C0 294.8 0 149.6 0 0 Z " fill="#FEFEFE" transform="translate(0,0)"/>
<path d="M0 0 C0.98742187 0.32871094 1.97484375 0.65742187 2.9921875 0.99609375 C22.26629181 8.23014069 36.49765542 22.77983881 45.49609375 41.03515625 C53.58769269 59.25926188 55.0901056 80.17873747 48 99 C44.01946859 108.67731461 39.08451251 118.89407512 30.93554688 125.73242188 C28.44995095 128.64440661 28.46496396 130.28683796 28.390625 134.078125 C28.35839844 135.23828125 28.32617188 136.3984375 28.29296875 137.59375 C28.27878906 138.8003125 28.26460937 140.006875 28.25 141.25 C28.22035156 142.47203125 28.19070313 143.6940625 28.16015625 144.953125 C28.08947598 147.96881644 28.03676825 150.9837355 28 154 C27.113125 153.443125 26.22625 152.88625 25.3125 152.3125 C24.219375 151.879375 23.12625 151.44625 22 151 C20.35 151.99 18.7 152.98 17 154 C17 148.72 17 143.44 17 138 C14.89625 139.093125 12.7925 140.18625 10.625 141.3125 C1.34710722 146.00570621 -7.74463586 148.34276435 -18 150 C-17.93954948 152.85628706 -17.8523561 155.70765491 -17.75 158.5625 C-17.73582031 159.36236328 -17.72164063 160.16222656 -17.70703125 160.98632812 C-17.46870538 166.82531204 -16.07793258 170.06563264 -13 175 C-11.84800886 179.82247327 -12.60113096 183.91678022 -15.0625 188.1875 C-17.80828062 192.12469692 -21.19738454 195.10694386 -25 198 C-30.04708268 194.21468799 -34.33536449 190.24238316 -36 184 C-36.96191623 175.31360497 -36.96191623 175.31360497 -34.0234375 171.30078125 C-31.30703416 166.86958275 -31.33448108 163.22458493 -31.25 158.125 C-31.22035156 157.24585938 -31.19070313 156.36671875 -31.16015625 155.4609375 C-31.08994441 153.30777455 -31.04265119 151.15388515 -31 149 C-32.04285156 149.020625 -33.08570313 149.04125 -34.16015625 149.0625 C-45.97708022 148.87015943 -55.82751021 143.43479467 -66 138 C-66 143.28 -66 148.56 -66 154 C-67.65 153.01 -69.3 152.02 -71 151 C-73.18298142 151.59145334 -73.18298142 151.59145334 -75 153 C-76.485 153.99 -76.485 153.99 -78 155 C-77.98839844 154.19892822 -77.97679687 153.39785645 -77.96484375 152.57250977 C-77.93515554 148.90150909 -77.96710944 145.23345213 -78 141.5625 C-77.98066406 140.30244141 -77.96132813 139.04238281 -77.94140625 137.74414062 C-78.04452904 131.16146945 -78.35616892 126.8898259 -82.8671875 121.8828125 C-83.56440918 121.23328613 -84.26163086 120.58375977 -84.97998047 119.91455078 C-95.13777775 110.28710985 -100.77669216 93.13140578 -101.3359375 79.3984375 C-101.71367789 54.3602358 -95.11116948 35.59909273 -77.625 17.3125 C-69.68656716 9.61832663 -61.34590051 4.80281749 -51 1 C-49.75476563 0.5359375 -49.75476563 0.5359375 -48.484375 0.0625 C-33.78682517 -5.13663327 -14.72242253 -4.9542757 0 0 Z " fill="#3F90B9" transform="translate(379,123)"/>
<path d="M0 0 C0.98742187 0.32871094 1.97484375 0.65742187 2.9921875 0.99609375 C22.26629181 8.23014069 36.49765542 22.77983881 45.49609375 41.03515625 C53.58769269 59.25926188 55.0901056 80.17873747 48 99 C44.01946859 108.67731461 39.08451251 118.89407512 30.93554688 125.73242188 C28.44995095 128.64440661 28.46496396 130.28683796 28.390625 134.078125 C28.35839844 135.23828125 28.32617188 136.3984375 28.29296875 137.59375 C28.27878906 138.8003125 28.26460937 140.006875 28.25 141.25 C28.22035156 142.47203125 28.19070313 143.6940625 28.16015625 144.953125 C28.08947598 147.96881644 28.03676825 150.9837355 28 154 C27.113125 153.443125 26.22625 152.88625 25.3125 152.3125 C24.219375 151.879375 23.12625 151.44625 22 151 C20.35 151.99 18.7 152.98 17 154 C17 148.72 17 143.44 17 138 C14.89625 139.093125 12.7925 140.18625 10.625 141.3125 C1.34710722 146.00570621 -7.74463586 148.34276435 -18 150 C-17.93954948 152.85628706 -17.8523561 155.70765491 -17.75 158.5625 C-17.73582031 159.36236328 -17.72164063 160.16222656 -17.70703125 160.98632812 C-17.46870538 166.82531204 -16.07793258 170.06563264 -13 175 C-11.84800886 179.82247327 -12.60113096 183.91678022 -15.0625 188.1875 C-17.80828062 192.12469692 -21.19738454 195.10694386 -25 198 C-30.04708268 194.21468799 -34.33536449 190.24238316 -36 184 C-36.96191623 175.31360497 -36.96191623 175.31360497 -34.0234375 171.30078125 C-31.30703416 166.86958275 -31.33448108 163.22458493 -31.25 158.125 C-31.22035156 157.24585938 -31.19070313 156.36671875 -31.16015625 155.4609375 C-31.08994441 153.30777455 -31.04265119 151.15388515 -31 149 C-32.04285156 149.020625 -33.08570313 149.04125 -34.16015625 149.0625 C-45.97708022 148.87015943 -55.82751021 143.43479467 -66 138 C-66 143.28 -66 148.56 -66 154 C-67.65 153.01 -69.3 152.02 -71 151 C-73.18298142 151.59145334 -73.18298142 151.59145334 -75 153 C-76.485 153.99 -76.485 153.99 -78 155 C-77.98839844 154.19892822 -77.97679687 153.39785645 -77.96484375 152.57250977 C-77.93515554 148.90150909 -77.96710944 145.23345213 -78 141.5625 C-77.98066406 140.30244141 -77.96132813 139.04238281 -77.94140625 137.74414062 C-78.04452904 131.16146945 -78.35616892 126.8898259 -82.8671875 121.8828125 C-83.56440918 121.23328613 -84.26163086 120.58375977 -84.97998047 119.91455078 C-95.13777775 110.28710985 -100.77669216 93.13140578 -101.3359375 79.3984375 C-101.71367789 54.3602358 -95.11116948 35.59909273 -77.625 17.3125 C-69.68656716 9.61832663 -61.34590051 4.80281749 -51 1 C-49.75476563 0.5359375 -49.75476563 0.5359375 -48.484375 0.0625 C-33.78682517 -5.13663327 -14.72242253 -4.9542757 0 0 Z M-65 22 C-66.05574219 22.81597656 -66.05574219 22.81597656 -67.1328125 23.6484375 C-78.71270559 33.02683 -87.04366662 48.26228857 -89 63 C-90.49732196 83.85555582 -86.05327992 100.92077993 -72.5625 117.3125 C-65.0465628 125.59822592 -55.59928431 131.51848326 -45 135 C-43.948125 135.391875 -42.89625 135.78375 -41.8125 136.1875 C-26.08455173 140.7311295 -7.35426815 137.7328967 6.875 130 C16.72370383 123.98416802 25.40033529 116.18926332 31 106 C31.67289063 104.77990234 31.67289063 104.77990234 32.359375 103.53515625 C40.84921557 87.3295488 42.28311923 70.75634066 37.20288086 53.24584961 C35.35491786 47.41471249 32.7371915 42.83636547 29 38 C28.35545048 36.82299653 27.72938641 35.63562283 27.125 34.4375 C20.5873221 22.9502441 7.1593139 15.29182563 -5 11 C-26.03425398 5.51702794 -48.01834849 7.87972567 -65 22 Z " fill="#8A6041" transform="translate(379,123)"/>
<path d="M0 0 C-0.66 0.99 -1.32 1.98 -2 3 C-2.66 3 -3.32 3 -4 3 C-5.40821893 5.79740787 -6.79758179 8.60075812 -8.125 11.4375 C-8.65480469 12.54931641 -8.65480469 12.54931641 -9.1953125 13.68359375 C-10.12607929 16.36293698 -10.40714337 18.1865936 -10 21 C-8.44947108 22.7211603 -8.44947108 22.7211603 -6.3125 24 C-2.82763934 26.39314325 0.08581905 28.91439664 3 32 C3.66 32.66 4.32 33.32 5 34 C5.28761292 36.46450806 5.28761292 36.46450806 5.33813477 39.60791016 C5.36057755 40.78318268 5.38302032 41.9584552 5.40614319 43.16934204 C5.4235984 45.08485367 5.4235984 45.08485367 5.44140625 47.0390625 C5.46206398 49.00400162 5.46206398 49.00400162 5.48313904 51.00863647 C5.50868576 53.78782714 5.52435766 56.56690819 5.53540039 59.34619141 C5.55189049 62.8908537 5.61021137 66.43350006 5.67854404 69.97748756 C5.73437313 73.37294672 5.74058471 76.76817499 5.75390625 80.1640625 C5.78376114 81.42892487 5.81361603 82.69378723 5.84437561 83.99697876 C5.81476374 89.96358101 5.66201691 94.02674782 1.69116211 98.67724609 C-6.85729482 107 -6.85729482 107 -11 107 C-9.62324688 113.88376561 -7.45527643 120.8717662 -2.1015625 125.71875 C1.20757169 127.73621471 4.1699423 127.68082852 8 128 C8 128.33 8 128.66 8 129 C1.3321787 129.25056531 -4.57936095 128.82404518 -11 127 C-11.9384375 126.74347656 -12.876875 126.48695313 -13.84375 126.22265625 C-28.38394437 121.85685047 -42.62337488 111.96368282 -50.03515625 98.43359375 C-59.22774877 80.67962153 -62.45073477 62.10026426 -56.4609375 42.6015625 C-49.8081022 26.20072253 -38.48010267 12.38150513 -22.16015625 4.875 C-14.71395516 1.85881728 -8.10500844 -0.62346219 0 0 Z " fill="#21ABB8" transform="translate(349,132)"/>
<path d="M0 0 C20.50761116 -0.74123896 37.56182844 6.28754334 52.984375 19.5703125 C67.79157461 33.60033865 76.71970736 52.82388349 77.4050293 73.22949219 C77.65437734 93.06484786 71.56910608 112.1385981 58 127 C57.31873047 127.57169922 56.63746094 128.14339844 55.93554688 128.73242188 C53.44995095 131.64440661 53.46496396 133.28683796 53.390625 137.078125 C53.35839844 138.23828125 53.32617188 139.3984375 53.29296875 140.59375 C53.27878906 141.8003125 53.26460938 143.006875 53.25 144.25 C53.20552734 146.08304687 53.20552734 146.08304687 53.16015625 147.953125 C53.08947598 150.96881644 53.03676825 153.9837355 53 157 C52.113125 156.443125 51.22625 155.88625 50.3125 155.3125 C49.219375 154.879375 48.12625 154.44625 47 154 C45.35 154.99 43.7 155.98 42 157 C42 151.72 42 146.44 42 141 C39.89625 142.093125 37.7925 143.18625 35.625 144.3125 C29.89455196 147.22652508 24.26568242 149.4746466 18 151 C17.41476562 151.18820312 16.82953125 151.37640625 16.2265625 151.5703125 C12.87651208 152.21681346 9.41186186 152 6 152 C6 157.61 6 163.22 6 169 C4.02 168.01 2.04 167.02 0 166 C-1.65 166.99 -3.3 167.98 -5 169 C-5 163.39 -5 157.78 -5 152 C-3.35 152 -1.7 152 0 152 C0 148.37 0 144.74 0 141 C1.55847656 140.72736328 1.55847656 140.72736328 3.1484375 140.44921875 C22.21902867 137.04931999 38.1485824 131.47231084 50.84375 115.7109375 C61.1067705 100.8923926 66.66057534 83.71239287 63.6015625 65.64697266 C61.61415564 56.34246879 58.85907141 48.57751414 53 41 C52.33397389 39.80267825 51.6869402 38.59452637 51.0625 37.375 C44.05129744 25.90212308 30.27206324 17.73541096 17.40820312 14.30981445 C14.75829121 13.73701159 12.10611746 13.22772756 9.4375 12.75 C8.52419922 12.57726562 7.61089844 12.40453125 6.66992188 12.2265625 C4.44844904 11.80785558 2.22446604 11.40250204 0 11 C0 7.37 0 3.74 0 0 Z " fill="#734F33" transform="translate(354,120)"/>
<path d="M0 0 C0 0.66 0 1.32 0 2 C0.62390625 2.08507812 1.2478125 2.17015625 1.890625 2.2578125 C4 3 4 3 5.046875 4.6796875 C6.73372672 9.94641342 7.20591732 14.51037077 7.04296875 20.02734375 C6.93650071 27.39299661 7.71134111 34.75535465 9 42 C5.30827405 45.53790403 1.90609405 45.59115883 -3 46 C-3 44.68 -3 43.36 -3 42 C-3.85980469 42.28875 -4.71960938 42.5775 -5.60546875 42.875 C-15.73338963 46.05585192 -26.86083166 48.50629704 -37 44 C-38.4375 41.875 -38.4375 41.875 -39 40 C-39.66 40 -40.32 40 -41 40 C-41.48455482 32.85281647 -41.48455482 32.85281647 -39.4375 29.25 C-36.54321102 26.57834863 -33.48421047 24.76694177 -30 23 C-29.35675781 22.64808594 -28.71351563 22.29617187 -28.05078125 21.93359375 C-20.2419525 17.77604445 -12.75495693 16.72957974 -4 16 C-3.67 13.03 -3.34 10.06 -3 7 C-3.99 6.67 -4.98 6.34 -6 6 C-6.433125 5.505 -6.86625 5.01 -7.3125 4.5 C-9.7982445 2.29044933 -11.70713046 2.18997324 -15 2 C-19.24273968 2.75763209 -21.95876331 3.77825334 -25.0625 6.6875 C-28 9 -28 9 -31.1875 8.9375 C-34 8 -34 8 -37 6 C-37 5.34 -37 4.68 -37 4 C-24.50329916 -2.8353562 -13.52947977 -5.3734104 0 0 Z " fill="#17375D" transform="translate(873,200)"/>
<path d="M0 0 C-0.33 0.99 -0.66 1.98 -1 3 C-0.236875 3 0.52625 3 1.3125 3 C4 4 4 4 5.8125 7.375 C7.15767159 11.61341774 7.17240663 15.50865977 7.04296875 19.921875 C6.9402464 27.28053096 7.39709132 34.80711569 9 42 C1.71428571 46.57142857 1.71428571 46.57142857 -3 46 C-3 44.68 -3 43.36 -3 42 C-4.39698636 42.28609307 -5.7925433 42.57916905 -7.1875 42.875 C-8.35345703 43.11863281 -8.35345703 43.11863281 -9.54296875 43.3671875 C-12.02779598 43.93213794 -12.02779598 43.93213794 -14.33203125 45.0546875 C-17.809013 46.28664882 -20.81837673 46.26472649 -24.5 46.25 C-26.43359375 46.25773437 -26.43359375 46.25773437 -28.40625 46.265625 C-31.78175443 46.01613119 -34.02678386 45.57179263 -37 44 C-38.3125 41.875 -38.3125 41.875 -39 40 C-39.66 40 -40.32 40 -41 40 C-41.64926081 36.02327756 -42.00912231 32.52285731 -39.7109375 29.0546875 C-29.88432233 19.72985694 -16.99323477 17.05547285 -4 16 C-3.67 13.03 -3.34 10.06 -3 7 C-4.32 6.34 -5.64 5.68 -7 5 C-7.721875 4.443125 -8.44375 3.88625 -9.1875 3.3125 C-13.27943502 1.40293033 -16.70889763 1.7119071 -21 3 C-22.69051578 4.15110152 -22.69051578 4.15110152 -24.125 5.5625 C-27 8 -27 8 -30.6875 8.4375 C-34 8 -34 8 -37 6 C-36 3 -36 3 -34.50390625 1.90234375 C-23.11259503 -3.75893165 -11.81767759 -4.69354571 0 0 Z " fill="#16365C" transform="translate(580,200)"/>
<path d="M0 0 C0.84809201 2.49581362 1.67846921 4.99544125 2.5 7.5 C2.73847656 8.19609375 2.97695313 8.8921875 3.22265625 9.609375 C4.83709006 14.59105646 5.23579709 18.76530467 5 24 C5.66 24 6.32 24 7 24 C10.47376908 30.45128543 12.8113641 37.01499182 15 44 C11.39042389 47.2910841 8.87362847 48.54663921 4 49 C1.6007767 44.35150485 1.80042591 40.08913926 2 35 C0.68 34.67 -0.64 34.34 -2 34 C-2.04898438 33.34773438 -2.09796875 32.69546875 -2.1484375 32.0234375 C-2.57619886 27.02305471 -3.34061913 22.75689181 -5 18 C-5.125 15.125 -5.125 15.125 -5 13 C-5.66 13 -6.32 13 -7 13 C-7.2475 14.0725 -7.495 15.145 -7.75 16.25 C-11.31017192 30.46525788 -11.31017192 30.46525788 -15 36 C-15.45772063 38.73872955 -15.45772063 38.73872955 -15.625 41.6875 C-15.69976563 42.68136719 -15.77453125 43.67523438 -15.8515625 44.69921875 C-15.90054688 45.45847656 -15.94953125 46.21773437 -16 47 C-20.6640625 49.0078125 -20.6640625 49.0078125 -23.6875 48.9375 C-26 48 -26 48 -27.3125 45.875 C-28 43 -28 43 -27.9375 39.6875 C-27.99896347 36.0611551 -28.75842645 33.59033029 -30.1328125 30.265625 C-31.78180254 25.95745282 -32.84375858 21.46095981 -34 17 C-39.50889324 22.50889324 -40.90389572 30.9572567 -42.51708984 38.32666016 C-43.43493868 42.35909574 -44.44674037 45.70730627 -47 49 C-50.1875 49.3125 -50.1875 49.3125 -53 49 C-52.93917144 47.29071737 -52.85016916 45.58242887 -52.75 43.875 C-52.70359375 42.92367187 -52.6571875 41.97234375 -52.609375 40.9921875 C-51.8520012 37.27328793 -50.10928989 35.15259457 -48 32 C-46.61586951 28.72512452 -45.49592594 25.3726975 -44.375 22 C-43.92640625 20.68515625 -43.92640625 20.68515625 -43.46875 19.34375 C-42.24930852 15.76096617 -41.05524864 12.1843714 -39.96875 8.55859375 C-38.45914273 4.57152616 -36.53151669 3.33080101 -33 1 C-29.89486885 1.08625364 -29.21427103 1.78572897 -27 4 C-26.32215008 6.33010909 -25.65583207 8.66359824 -25 11 C-24.01 12.485 -24.01 12.485 -23 14 C-22.66686818 16.83794579 -22.55891705 19.64953096 -22.44140625 22.50390625 C-22.29574219 23.32761719 -22.15007813 24.15132812 -22 25 C-20.515 25.99 -20.515 25.99 -19 27 C-18.60167969 25.99839844 -18.20335937 24.99679688 -17.79296875 23.96484375 C-17.25785964 22.62237704 -16.72270072 21.27993019 -16.1875 19.9375 C-15.92646484 19.28072266 -15.66542969 18.62394531 -15.39648438 17.94726562 C-14.86726386 16.62094754 -14.33460276 15.29599735 -13.79858398 13.97241211 C-13.26978298 12.66633344 -12.74834201 11.35724864 -12.23461914 10.04516602 C-9.77956073 3.96624008 -7.01182979 0 0 0 Z " fill="#17375C" transform="translate(812,197)"/>
<path d="M0 0 C0.10331031 7.42686315 -0.00137301 14.63512596 -1 22 C-1.66 22 -2.32 22 -3 22 C-3 22.99 -3 23.98 -3 25 C-2.34 25 -1.68 25 -1 25 C-0.95101562 25.76183594 -0.90203125 26.52367187 -0.8515625 27.30859375 C-0.38661304 33.72970616 0.43860343 39.75441373 2 46 C-3.29230769 49.07692308 -3.29230769 49.07692308 -6.875 48.6875 C-7.57625 48.460625 -8.2775 48.23375 -9 48 C-9.495 46.02 -9.495 46.02 -10 44 C-10.67546875 44.27714844 -11.3509375 44.55429688 -12.046875 44.83984375 C-12.93890625 45.20207031 -13.8309375 45.56429687 -14.75 45.9375 C-16.07257812 46.47697266 -16.07257812 46.47697266 -17.421875 47.02734375 C-21.53296608 48.5783463 -24.84561764 49.1204524 -29.25 49.0625 C-30.14203125 49.05347656 -31.0340625 49.04445312 -31.953125 49.03515625 C-32.62859375 49.02355469 -33.3040625 49.01195312 -34 49 C-34 48.34 -34 47.68 -34 47 C-35.60875 47.1546875 -35.60875 47.1546875 -37.25 47.3125 C-41 47 -41 47 -43.375 45.1875 C-47.50296823 37.09033154 -46.26815576 25.90692431 -46.375 17 C-46.41238281 15.78699219 -46.44976563 14.57398438 -46.48828125 13.32421875 C-46.49988281 12.16535156 -46.51148438 11.00648438 -46.5234375 9.8125 C-46.54325684 8.76707031 -46.56307617 7.72164062 -46.58349609 6.64453125 C-46 4 -46 4 -43.64306641 2.1484375 C-40.84597177 0.93307327 -39.01324104 0.7417222 -36 1 C-34.81741209 4.59156327 -35.09099402 7.63615771 -35.4375 11.375 C-36.20179152 20.8939035 -36.79661974 30.56774638 -35 40 C-29.41733555 42.8813752 -23.76881873 42.53246514 -17.75 41.375 C-14.24571645 39.62285823 -11.99140239 37.33041452 -10 34 C-9.39682712 30.48071036 -9.39682712 30.48071036 -9.6875 26.73828125 C-9.70643311 26.06580856 -9.72536621 25.39333588 -9.74487305 24.70048523 C-9.80554595 22.56945778 -9.89867768 20.44195732 -10 18.3125 C-10.13300918 15.49618887 -10.23281312 12.68154747 -10.3125 9.86328125 C-10.37050781 8.61844971 -10.42851563 7.37361816 -10.48828125 6.09106445 C-10 3 -10 3 -7.65625 1.08276367 C-4.86873637 -0.05350682 -2.97786309 -0.25524541 0 0 Z " fill="#16365C" transform="translate(696,197)"/>
<path d="M0 0 C1 1 1 1 1.1328125 3.21484375 C1.13023437 4.11332031 1.12765625 5.01179687 1.125 5.9375 C1.12757813 6.83339844 1.13015625 7.72929687 1.1328125 8.65234375 C1 11 1 11 0 13 C13.365 13.495 13.365 13.495 27 14 C26.34 11.03 25.68 8.06 25 5 C29.19921875 0.99609375 29.19921875 0.99609375 31 0 C32.67630534 0.28087239 34.34558664 0.61037796 36 1 C35.99476318 1.72590332 35.98952637 2.45180664 35.98413086 3.19970703 C35.96326503 6.50812912 35.95030931 9.81653731 35.9375 13.125 C35.92493164 14.83816406 35.92493164 14.83816406 35.91210938 16.5859375 C35.90888672 17.69453125 35.90566406 18.803125 35.90234375 19.9453125 C35.89710693 20.96125488 35.89187012 21.97719727 35.88647461 23.02392578 C36.00362927 26.09514163 36.45159616 28.97882183 37 32 C37.4123178 36.39457701 37.62080299 40.61956772 37 45 C34.25 47.8125 34.25 47.8125 31 49 C29.68 49 28.36 49 27 49 C27.01160156 48.33097656 27.02320313 47.66195312 27.03515625 46.97265625 C27.11995022 37.94815531 26.59711025 28.99930454 26 20 C23.01632274 19.00544091 20.7995808 18.80440368 17.67578125 18.68359375 C16.64775391 18.64169922 15.61972656 18.59980469 14.56054688 18.55664062 C12.95276367 18.49766602 12.95276367 18.49766602 11.3125 18.4375 C10.22904297 18.39431641 9.14558594 18.35113281 8.02929688 18.30664062 C5.35299209 18.20053162 2.67659474 18.09847639 0 18 C0.16298584 18.71115967 0.32597168 19.42231934 0.49389648 20.1550293 C1.00277656 23.01560796 1.11387043 25.61719358 1.09765625 28.51953125 C1.09443359 29.54111328 1.09121094 30.56269531 1.08789062 31.61523438 C1.07951172 32.67033203 1.07113281 33.72542969 1.0625 34.8125 C1.05798828 35.88693359 1.05347656 36.96136719 1.04882812 38.06835938 C1.03707729 40.71229683 1.02064787 43.35611952 1 46 C-2.72965139 48.03435531 -4.66905042 49 -9 49 C-9 22 -9 22 -8.96484375 19.390625 C-8.8881264 11.64822002 -8.8881264 11.64822002 -10 4 C-6.62005298 0.90976272 -4.6589257 -0.64707301 0 0 Z " fill="#17375C" transform="translate(904,197)"/>
<path d="M0 0 C0.75418213 0.01240723 1.50836426 0.02481445 2.28540039 0.03759766 C18.84097456 0.38429292 18.84097456 0.38429292 26.75 2.375 C36.9913947 4.64153817 48.77100704 2.58408242 59.0625 1.25 C57.3125 5.1015625 57.3125 5.1015625 55.0625 6.4375 C46.27772727 8.81670928 37.08831848 8.36704952 28.0625 8.25 C28.0625 12.21 28.0625 16.17 28.0625 20.25 C27.4025 20.25 26.7425 20.25 26.0625 20.25 C26.0625 20.91 26.0625 21.57 26.0625 22.25 C26.7225 22.25 27.3825 22.25 28.0625 22.25 C28.3125 29.875 28.3125 29.875 26.0625 33.25 C26.7225 33.25 27.3825 33.25 28.0625 33.25 C28.11660136 36.31273831 28.15622225 39.37451452 28.1875 42.4375 C28.20425781 43.30181641 28.22101563 44.16613281 28.23828125 45.05664062 C28.27288233 49.57208103 28.21817916 53.15081483 26.0625 57.25 C26.7225 57.25 27.3825 57.25 28.0625 57.25 C28.34777753 60.62895391 28.49663758 63.88000704 28.0625 67.25 C25.44654484 69.79121358 24.00078237 70.23082343 20.38671875 70.3046875 C19.61972656 70.28664063 18.85273438 70.26859375 18.0625 70.25 C17.95052615 64.26561967 18.11087345 58.39003085 18.6328125 52.42578125 C19.27854832 43.12227538 18.55947251 34.0296614 17.82104492 24.75146484 C17.65177957 22.57966024 17.49541759 20.40719611 17.33984375 18.234375 C17.23921631 16.96303711 17.13858887 15.69169922 17.03491211 14.38183594 C17.0625 11.25 17.0625 11.25 19.0625 8.25 C17.31517126 6.50267126 14.817105 6.91533236 12.4375 6.75 C8.9486857 6.49784636 5.63662232 6.17444106 2.1875 5.5625 C-1.42843355 5.20090664 -3.55207666 6.02548517 -6.9375 7.25 C-10.3125 7.375 -10.3125 7.375 -12.9375 7.25 C-12.59115988 4.73903412 -12.15626728 3.4786862 -10.38671875 1.62890625 C-6.96846435 -0.29556553 -3.81074477 -0.11241634 0 0 Z " fill="#17375C" transform="translate(474.9375,175.75)"/>
<path d="M0 0 C0.95130265 1.90260531 1.90174339 3.80564683 2.84765625 5.7109375 C3.58872565 7.1830279 4.34537694 8.64743134 5.12109375 10.1015625 C7.25327257 14.14723514 8.24322885 17.45937312 9 22 C9.99 22.66 10.98 23.32 12 24 C12.7734375 25.8125 12.7734375 25.8125 13.375 28 C14.75448602 32.61568564 16.81104745 36.57047749 19.20703125 40.73828125 C20 43 20 43 19.32421875 45.16796875 C18 47 18 47 15 49 C12.3125 49.125 12.3125 49.125 10 49 C7.26459231 43.21356066 4.96189182 37.33585601 2.8125 31.3125 C2.55065918 30.58812744 2.28881836 29.86375488 2.01904297 29.11743164 C0.6016978 25.09115568 -0.44391506 21.2543848 -1 17 C-1.99 16.67 -2.98 16.34 -4 16 C-4.66 15.01 -5.32 14.02 -6 13 C-13.19978684 25.52592272 -13.19978684 25.52592272 -18.5625 38.875 C-19.71097269 42.47992818 -20.72378648 44.84705969 -24 47 C-27.25 47.25 -27.25 47.25 -30 47 C-28.43643403 41.63061136 -26.01029922 36.96065999 -23.375 32.0625 C-22.71165649 30.81702393 -22.71165649 30.81702393 -22.03491211 29.54638672 C-21.13018446 27.84874257 -20.22353219 26.15212268 -19.31494141 24.45654297 C-18.09290392 22.17356094 -16.87863728 19.88668266 -15.66796875 17.59765625 C-6.34401023 0 -6.34401023 0 0 0 Z " fill="#18375D" transform="translate(623,197)"/>
<path d="M0 0 C2.625 0.9375 2.625 0.9375 5.3125 2.3125 C9.59819725 4.52716133 9.59819725 4.52716133 18.625 6.9375 C17.635 14.1975 16.645 21.4575 15.625 28.9375 C7.86243816 31.15537481 0.59568059 32.8183487 -6.9375 29.25 C-10.70489475 25.67580498 -12.14611088 23.43799533 -12.9375 18.25 C-12.70455321 11.78879176 -8.48697731 6.30243276 -4.3203125 1.63671875 C-2.375 -0.0625 -2.375 -0.0625 0 0 Z " fill="#FAFDFD" transform="translate(309.375,204.0625)"/>
<path d="M0 0 C0.70705078 -0.00322266 1.41410156 -0.00644531 2.14257812 -0.00976562 C9.5277432 0.06651308 9.5277432 0.06651308 11.9375 2.3125 C12.70717795 5.15644518 13.23060602 7.72874485 13.625 10.625 C13.85788302 12.14195625 14.09095133 13.65888406 14.32421875 15.17578125 C14.42782715 15.88943848 14.53143555 16.6030957 14.63818359 17.33837891 C14.99329171 19.68047043 15.44278063 21.99610369 15.9375 24.3125 C15.17566406 24.48265625 14.41382813 24.6528125 13.62890625 24.828125 C7.02485803 26.37813881 1.01376488 28.28971166 -5.0625 31.3125 C-10.44632789 26.47310414 -15.20149682 21.59592859 -16.40625 14.203125 C-16.60728181 9.74691989 -15.90030245 6.73743399 -13.0625 3.3125 C-8.86334703 0.09314939 -5.11533232 -0.1172166 0 0 Z " fill="#FBFDFD" transform="translate(313.0625,157.6875)"/>
<path d="M0 0 C4.73098788 0.08247364 7.23349787 1.0588617 10.8125 4.3125 C15.03226174 9.50515125 16.79624831 14.75995177 17.8125 21.3125 C17.24402344 21.66441406 16.67554688 22.01632813 16.08984375 22.37890625 C10.67009655 25.84428718 6.16651166 29.58048733 1.8125 34.3125 C-0.125 33.5 -0.125 33.5 -2.1875 32.3125 C-2.5175 31.3225 -2.8475 30.3325 -3.1875 29.3125 C-5.02675399 28.26744265 -5.02675399 28.26744265 -7.1875 27.3125 C-8.62508346 26.29989559 -10.0420128 25.25737352 -11.4375 24.1875 C-12.14390625 23.64867187 -12.8503125 23.10984375 -13.578125 22.5546875 C-14.10921875 22.14476562 -14.6403125 21.73484375 -15.1875 21.3125 C-14.56362937 12.42234349 -11.78891599 7.37866605 -5.1875 1.3125 C-3.63719882 -0.23780118 -2.15073999 0.06844901 0 0 Z " fill="#FAFDFD" transform="translate(353.1875,131.6875)"/>
<path d="M0 0 C3.85921938 1.57227456 6.07740557 4.07740557 9 7 C11.95280101 9.39604391 14.96678113 11.70691297 18 14 C16.90791519 21.64459369 14.32276294 26.39272411 9 32 C4.72898297 34.84734468 1.01031661 34.72806163 -4 34 C-9.83910201 30.69484792 -12.86002828 25.29681944 -15 19 C-15.42578125 15.90234375 -15.42578125 15.90234375 -15 13 C-12.98828125 11.09375 -12.98828125 11.09375 -10.3125 9.5 C-5.94320374 6.71728508 -3.04693644 4.16414647 0 0 Z " fill="#FBFDFD" transform="translate(353,226)"/>
<path d="M0 0 C2.51229511 1.11489401 3.48774214 2.44278276 5.0703125 4.67578125 C5.81667969 5.70638672 5.81667969 5.70638672 6.578125 6.7578125 C10.12007738 12.21241916 10.58493701 16.40412231 9.9453125 22.86328125 C8.538568 26.99559323 7.30691516 27.67930797 3.3828125 29.67578125 C-3.70772461 31.97400322 -10.13394608 31.38082632 -17.0546875 28.86328125 C-17.17585938 27.86167969 -17.29703125 26.86007813 -17.421875 25.828125 C-17.59085901 24.48564095 -17.76014608 23.14319502 -17.9296875 21.80078125 C-18.04763672 20.81561523 -18.04763672 20.81561523 -18.16796875 19.81054688 C-18.74186237 15.32976205 -19.71876526 11.1797695 -21.0546875 6.86328125 C-20.01828125 6.52554688 -18.981875 6.1878125 -17.9140625 5.83984375 C-16.5442179 5.38948388 -15.17442916 4.93895411 -13.8046875 4.48828125 C-13.12277344 4.2665625 -12.44085938 4.04484375 -11.73828125 3.81640625 C-8.98784578 2.90849551 -6.36478931 2.03351197 -3.8203125 0.63671875 C-2.0546875 -0.13671875 -2.0546875 -0.13671875 0 0 Z " fill="#FBFDFD" transform="translate(401.0546875,204.13671875)"/>
<path d="M0 0 C2.66960011 1.72040896 4.13160173 3.56263697 5.89453125 6.20703125 C7.00262414 12.66896239 5.82297257 17.70107594 2.40625 23.22265625 C0.20829401 26.10782845 -2.16780281 28.08917906 -5.10546875 30.20703125 C-5.79511719 29.86929688 -6.48476563 29.5315625 -7.1953125 29.18359375 C-13.1545876 26.35518609 -18.61339078 24.37773383 -25.10546875 23.20703125 C-24.90050781 22.37300781 -24.69554687 21.53898437 -24.484375 20.6796875 C-22.9275297 14.17669253 -21.67017783 7.87059841 -21.10546875 1.20703125 C-14.57653098 -1.25115315 -6.7227317 -2.53193791 0 0 Z " fill="#FCFDFE" transform="translate(405.10546875,158.79296875)"/>
<path d="M0 0 C-1.40760284 3.40170686 -2.68286753 5.31777751 -6 7 C-10.00022265 7.36304217 -13.9969197 7.06583002 -18.00195312 6.8828125 C-22.85811514 6.74591208 -26.07308054 6.75228928 -30 10 C-30.33 10.66 -30.66 11.32 -31 12 C-31.66 12 -32.32 12 -33 12 C-35.86613553 17.91140453 -35.39904267 23.70430799 -34 30 C-31.84634312 35.52845941 -27.04705687 38.27090324 -22 41 C-16.2341923 42.93083375 -12.0095013 42.34305722 -6.5625 39.75 C-4.16550908 38.44185086 -2.31319068 37.34108298 -0.46484375 35.328125 C1 34 1 34 5 34 C4.49168516 37.76152983 4.02179944 39.66054237 1 42 C-1.5699125 43.01481528 -4.05362766 43.88693825 -6.6875 44.6875 C-7.37005859 44.91244141 -8.05261719 45.13738281 -8.75585938 45.36914062 C-17.65820728 48.134837 -26.30242757 47.36449304 -35 44 C-39.19393564 41.2524997 -41.99773101 38.02590737 -43.4375 33.1875 C-43.78515625 31.171875 -43.78515625 31.171875 -44 29 C-44.12181641 27.77023438 -44.12181641 27.77023438 -44.24609375 26.515625 C-44.5316252 20.80499594 -43.76330839 16.48416746 -40 12 C-28.12499607 -0.41112149 -16.41857288 -2.15325546 0 0 Z " fill="#16365B" transform="translate(752,199)"/>
<path d="M0 0 C0.33 0 0.66 0 1 0 C1.01401855 1.22517334 1.01401855 1.22517334 1.02832031 2.47509766 C1.08215507 6.19233506 1.16577994 9.908332 1.25 13.625 C1.26417969 14.91019531 1.27835937 16.19539063 1.29296875 17.51953125 C1.47159673 24.4145711 1.62019452 28.64117918 6 34 C7.02604232 38.62385305 6.98563001 43.08914956 4.7890625 47.34765625 C3.29833383 49.37186904 1.74447271 51.19170512 0 53 C-0.78375 53.825 -1.5675 54.65 -2.375 55.5 C-2.91125 55.995 -3.4475 56.49 -4 57 C-9.82086214 55.45918355 -13.15980998 51.06906268 -16.15234375 46.078125 C-17.14358721 43.64797975 -17.33417332 41.74607285 -17.375 39.125 C-17.40335937 38.30257812 -17.43171875 37.48015625 -17.4609375 36.6328125 C-17 34 -17 34 -14.9921875 31.265625 C-12.33122654 26.90373605 -12.54310958 23.61424212 -12.75 18.625 C-12.76804687 17.79355469 -12.78609375 16.96210938 -12.8046875 16.10546875 C-12.85148427 14.06980926 -12.92321702 12.0347491 -13 10 C-12.34 10 -11.68 10 -11 10 C-10.67 14.95 -10.34 19.9 -10 25 C-8.35 24.01 -6.7 23.02 -5 22 C-3.68 22.99 -2.36 23.98 -1 25 C-0.67 16.75 -0.34 8.5 0 0 Z " fill="#E7AF5F" transform="translate(407,251)"/>
<path d="M0 0 C0.33 0 0.66 0 1 0 C1.33 5.28 1.66 10.56 2 16 C3.65 15.01 5.3 14.02 7 13 C8.32 13.99 9.64 14.98 11 16 C11.33 10.72 11.66 5.44 12 0 C12.99 0.33 13.98 0.66 15 1 C14.34 1 13.68 1 13 1 C13.06045052 3.85628706 13.1476439 6.70765491 13.25 9.5625 C13.26417969 10.36236328 13.27835937 11.16222656 13.29296875 11.98632812 C13.53129462 17.82531204 14.92206742 21.06563264 18 26 C19.15199114 30.82247327 18.39886904 34.91678022 15.9375 39.1875 C13.19171938 43.12469692 9.80261546 46.10694386 6 49 C0.95291732 45.21468799 -3.33536449 41.24238316 -5 35 C-5.96191623 26.31360497 -5.96191623 26.31360497 -3.0234375 22.30078125 C-0.30703416 17.86958275 -0.33448108 14.22458493 -0.25 9.125 C-0.22035156 8.24585938 -0.19070313 7.36671875 -0.16015625 6.4609375 C-0.08994441 4.30777455 -0.04265119 2.15388515 0 0 Z " fill="#E8AF5E" transform="translate(348,272)"/>
<path d="M0 0 C5.80895569 1.53766474 9.18656189 5.92584977 12.140625 10.93359375 C13.80317993 14.93128265 13.82044413 18.78057307 13 23 C10.21677602 27.97167681 6.63792448 31.72677453 2 35 C-1.09010211 33.64891639 -2.96910153 32.20982067 -5.125 29.625 C-5.62257813 29.03976562 -6.12015625 28.45453125 -6.6328125 27.8515625 C-9.8533174 23.49007872 -10.54820469 19.97356501 -10.453125 14.6015625 C-9.39824121 8.54507456 -4.369097 4.03301262 0 0 Z " fill="#FAC570" transform="translate(306,273)"/>
<path d="M0 0 C1.25425781 0.10183594 2.50851562 0.20367187 3.80078125 0.30859375 C5.22970703 0.43427734 5.22970703 0.43427734 6.6875 0.5625 C7.30140176 11.25462234 7.30140176 11.25462234 5.25 15.625 C1.63510734 18.35821152 -1.94019009 19.5001371 -6.3125 20.5625 C-7.34310547 20.83126953 -7.34310547 20.83126953 -8.39453125 21.10546875 C-13.09462029 22.0417784 -16.63499284 21.39847825 -20.71484375 19.0625 C-23.31420501 16.6220239 -23.7755013 14.31041068 -23.890625 10.81640625 C-22.94310949 7.12237618 -20.50601052 5.72063344 -17.390625 3.75390625 C-16.70484375 3.36074219 -16.0190625 2.96757812 -15.3125 2.5625 C-14.3225 1.9025 -13.3325 1.2425 -12.3125 0.5625 C-8.1199212 -0.6637008 -4.32350355 -0.36365918 0 0 Z " fill="#F9FAFB" transform="translate(571.3125,221.4375)"/>
<path d="M0 0 C0.61670236 10.74089936 0.61670236 10.74089936 -1.5 15.0625 C-6.98360825 19.31229639 -14.06066004 21.34937649 -21 21 C-24.21963809 20.27666915 -26.64099732 19.34696695 -29 17 C-29.95752715 13.97129998 -30.10809343 11.16173271 -30 8 C-19.56177637 0.1450792 -12.9838406 -1.44481835 0 0 Z " fill="#FAFBFC" transform="translate(871,222)"/>
<path d="M0 0 C0.33 0 0.66 0 1 0 C1.33 5.28 1.66 10.56 2 16 C3.32 15.34 4.64 14.68 6 14 C6 25.22 6 36.44 6 48 C0.4097467 44.64584802 -3.29102488 41.40865672 -5 35 C-5.96191623 26.31360497 -5.96191623 26.31360497 -3.0234375 22.30078125 C-0.30703416 17.86958275 -0.33448108 14.22458493 -0.25 9.125 C-0.22035156 8.24585938 -0.19070313 7.36671875 -0.16015625 6.4609375 C-0.08994441 4.30777455 -0.04265119 2.15388515 0 0 Z " fill="#F5C270" transform="translate(348,272)"/>
<path d="M0 0 C2.64 1.98 5.28 3.96 8 6 C8.99 6.66 9.98 7.32 11 8 C11.2208564 10.95064148 11.28060989 13.68368231 11.1875 16.625 C11.17396484 17.42679687 11.16042969 18.22859375 11.14648438 19.0546875 C11.11109051 21.03674378 11.05728234 23.01845551 11 25 C10.29875 24.46375 9.5975 23.9275 8.875 23.375 C5.55295814 21.37724227 5.55295814 21.37724227 0 24 C0 16.08 0 8.16 0 0 Z " fill="#724D2F" transform="translate(302,252)"/>
<path d="M0 0 C0.33 0 0.66 0 1 0 C1 8.25 1 16.5 1 25 C-0.98 24.01 -2.96 23.02 -5 22 C-7.87391821 23.17274994 -7.87391821 23.17274994 -10 25 C-11.37958673 9.85860989 -11.37958673 9.85860989 -8.03125 5.34765625 C-5.75606951 3.64487085 -3.53908955 2.26714488 -1 1 C-0.67 0.67 -0.34 0.34 0 0 Z " fill="#533622" transform="translate(406,252)"/>
<path d="M0 0 C5.56638856 4.3793201 10.86813852 8.90788541 12.8125 15.9375 C12.874375 16.618125 12.93625 17.29875 13 18 C5.89388489 17.05251799 5.89388489 17.05251799 3.61328125 14.3671875 C1.14762451 9.6925223 0.37381319 5.23338464 0 0 Z " fill="#ECF8F9" transform="translate(337,166)"/>
<path d="M0 0 C0.66 0 1.32 0 2 0 C3.03364037 3.12355556 3.45142049 5.72480031 3 9 C0.16512667 13.2345179 -3.37067561 17.6853378 -8 20 C-7.5049728 12.40958294 -4.17632581 6.26448871 0 0 Z " fill="#F0F9FA" transform="translate(345,206)"/>
<path d="M0 0 C0.66 0.66 1.32 1.32 2 2 C0.6875 4 0.6875 4 -2 6 C-7.90542092 6.79230296 -13.49594975 6.38012984 -19 4 C-18.67 3.34 -18.34 2.68 -18 2 C-12.11744564 0.07480039 -6.18590007 -0.78186097 0 0 Z " fill="#F0F9FA" transform="translate(339,193)"/>
<path d="M0 0 C0.66 0.33 1.32 0.66 2 1 C1.79503906 1.54269531 1.59007812 2.08539063 1.37890625 2.64453125 C1.10949219 3.35996094 0.84007812 4.07539063 0.5625 4.8125 C0.29566406 5.52019531 0.02882813 6.22789062 -0.24609375 6.95703125 C-0.86225186 8.62672396 -1.43719235 10.31157704 -2 12 C-6.29 11.34 -10.58 10.68 -15 10 C-10.8687271 5.18018162 -5.96000986 2.2152249 0 0 Z " fill="#EDF2F1" transform="translate(329,136)"/>
<path d="M0 0 C0.50615298 1.26839526 1.00469099 2.53983102 1.5 3.8125 C1.7784375 4.52019531 2.056875 5.22789062 2.34375 5.95703125 C3 8 3 8 3 11 C-3.1965447 9.53239731 -8.06869466 5.88851943 -13 2 C-13 1.67 -13 1.34 -13 1 C-8.62426048 0.40667939 -4.42471556 -0.13827236 0 0 Z " fill="#EAF0F0" transform="translate(327,245)"/>
<path d="M0 0 C4.12418544 0.45824283 6.33344309 0.77944927 9 4 C9.984375 5.90234375 9.984375 5.90234375 10.75 7.9375 C11.01296875 8.60652344 11.2759375 9.27554688 11.546875 9.96484375 C12.07046274 12.31647491 11.74954377 13.73617523 11 16 C5.66909359 12.55058997 2.81642708 7.55542661 0 2 C0 1.34 0 0.68 0 0 Z " fill="#F4F9FB" transform="translate(359,209)"/>
<path d="M0 0 C2.66666667 2.66666667 5.33333333 5.33333333 8 8 C6.5129879 12.59621922 4.20187872 15.46972347 1 19 C0.67 19 0.34 19 0 19 C0 12.73 0 6.46 0 0 Z " fill="#F3F9FA" transform="translate(290,187)"/>
<path d="M0 0 C-0.72161671 7.07184371 -2.9214165 13.14811933 -7 19 C-7.66 19 -8.32 19 -9 19 C-10.67842914 12.28628344 -10.67842914 12.28628344 -8.8359375 8.79296875 C-2.21266234 0 -2.21266234 0 0 0 Z " fill="#F1F8FA" transform="translate(371,167)"/>
<path d="M0 0 C1.98 0 3.96 0 6 0 C6 5.28 6 10.56 6 16 C4.02 14.68 2.04 13.36 0 12 C-0.5859375 8.984375 -0.5859375 8.984375 -0.375 5.75 C-0.32085937 4.67234375 -0.26671875 3.5946875 -0.2109375 2.484375 C-0.14132812 1.66453125 -0.07171875 0.8446875 0 0 Z " fill="#533622" transform="translate(354,273)"/>
<path d="M0 0 C5.22582023 0.12580678 10.27719357 0.63859679 15 3 C10.18910622 6.20726252 6.50185764 6.11575794 0.75 6.0625 C-0.51328125 6.05347656 -1.7765625 6.04445312 -3.078125 6.03515625 C-4.04234375 6.02355469 -5.0065625 6.01195312 -6 6 C-4 4 -2 2 0 0 Z " fill="#F9FCFD" transform="translate(373,193)"/>
<path d="M0 0 C0.66 0 1.32 0 2 0 C2 5.28 2 10.56 2 16 C-2.0084034 13.9957983 -3.41409657 12.50944037 -6 9 C-4.4722133 5.56247993 -2.49818944 2.81046312 0 0 Z " fill="#F0F1F0" transform="translate(417,188)"/>
<path d="M0 0 C1.32 0 2.64 0 4 0 C3.49524193 3.73520975 2.99696278 5.66338495 0 8 C-2.91796875 8.94921875 -2.91796875 8.94921875 -6.1875 9.6875 C-7.81751953 10.06455078 -7.81751953 10.06455078 -9.48046875 10.44921875 C-10.31191406 10.63097656 -11.14335938 10.81273437 -12 11 C-10.54620604 7.33771031 -8.74711829 5.87901928 -5.4375 3.8125 C-2.56549652 2.10136748 -2.56549652 2.10136748 0 0 Z " fill="#1D3C61" transform="translate(753,233)"/>
<path d="M0 0 C3.63 0.66 7.26 1.32 11 2 C7.49391962 6.11583349 2.95371163 8.90567018 -2 11 C-2.66 10.67 -3.32 10.34 -4 10 C-2.68 6.7 -1.36 3.4 0 0 Z " fill="#F6F8F8" transform="translate(382,245)"/>
<path d="M0 0 C5.73199571 1.46974249 10.33583399 4.44486902 15 8 C15 8.33 15 8.66 15 9 C9.06 9.495 9.06 9.495 3 10 C2.01 6.7 1.02 3.4 0 0 Z " fill="#FAFBFB" transform="translate(379,137)"/>
</svg>
