<?xml version="1.0" encoding="UTF-8"?>
<svg version="1.1" xmlns="http://www.w3.org/2000/svg" width="426" height="124">
<path d="M0 0 C140.58 0 281.16 0 426 0 C426 40.92 426 81.84 426 124 C285.42 124 144.84 124 0 124 C0 83.08 0 42.16 0 0 Z " fill="#FDFDFD" transform="translate(0,0)"/>
<path d="M0 0 C2.0061492 1.68426705 3.83919673 3.43533201 5.65625 5.3203125 C6.543125 6.2071875 7.43 7.0940625 8.34375 8.0078125 C15.63114725 17.45168444 16.94789752 27.84953448 15.65625 39.3203125 C14.12668359 45.34540659 11.30205064 50.33771829 7.65625 55.3203125 C5.23463821 58.95273019 5.39293005 61.63026266 5.46875 65.8203125 C5.46939453 66.49707031 5.47003906 67.17382812 5.47070312 67.87109375 C5.49803397 70.95036853 5.67592491 73.37933724 6.65625 76.3203125 C7.22914003 82.62210278 7.22914003 82.62210278 4.65625 85.7578125 C3.99625 86.2734375 3.33625 86.7890625 2.65625 87.3203125 C-0.70745321 85.92843531 -2.56281331 84.52599854 -4.34375 81.3203125 C-4.98847893 75.90458948 -3.51031351 70.59067977 -2.34375 65.3203125 C-3.99081553 65.96299687 -5.63637175 66.60955052 -7.28125 67.2578125 C-8.19777344 67.61746094 -9.11429688 67.97710937 -10.05859375 68.34765625 C-12.26793533 69.1199343 -12.26793533 69.1199343 -13.34375 70.3203125 C-15.00992115 70.36095082 -16.67763095 70.3630335 -18.34375 70.3203125 C-18.20267253 71.77911359 -18.05572585 73.23734801 -17.90625 74.6953125 C-17.82503906 75.50742188 -17.74382812 76.31953125 -17.66015625 77.15625 C-17.45284886 79.36304055 -17.45284886 79.36304055 -16.34375 81.3203125 C-15.74377068 86.60013054 -17.16762817 89.1516526 -20.34375 93.3203125 C-22.88278996 92.97010009 -24.16468298 92.48019377 -26.09375 90.7578125 C-27.94757717 87.14284953 -27.60863479 84.35980549 -27.34375 80.3203125 C-27.01375 79.9903125 -26.68375 79.6603125 -26.34375 79.3203125 C-26.11087992 77.63847302 -25.93110834 75.9490709 -25.78125 74.2578125 C-25.69746094 73.33871094 -25.61367188 72.41960937 -25.52734375 71.47265625 C-25.43646484 70.40724609 -25.43646484 70.40724609 -25.34375 69.3203125 C-26.519375 69.2171875 -27.695 69.1140625 -28.90625 69.0078125 C-33.91373229 68.39410685 -37.84671434 66.56883033 -42.34375 64.3203125 C-42.34375 66.6303125 -42.34375 68.9403125 -42.34375 71.3203125 C-44.32375 71.3203125 -46.30375 71.3203125 -48.34375 71.3203125 C-48.34632812 70.4746875 -48.34890625 69.6290625 -48.3515625 68.7578125 C-48.59079351 61.74036951 -49.11841221 57.23900642 -53.96875 52.00390625 C-55.50655314 50.12097115 -55.92862122 48.69173568 -56.34375 46.3203125 C-57.00375 46.3203125 -57.66375 46.3203125 -58.34375 46.3203125 C-62.0484055 36.76230131 -61.71610049 25.19003518 -57.65625 15.7734375 C-52.48811564 6.11394827 -44.34528938 -1.54038669 -34.09375 -5.6796875 C-22.1416843 -8.92962308 -10.064368 -7.21279707 0 0 Z " fill="#2BADB9" transform="translate(85.34375,22.6796875)"/>
<path d="M0 0 C2.0061492 1.68426705 3.83919673 3.43533201 5.65625 5.3203125 C6.543125 6.2071875 7.43 7.0940625 8.34375 8.0078125 C15.63114725 17.45168444 16.94789752 27.84953448 15.65625 39.3203125 C14.12668359 45.34540659 11.30205064 50.33771829 7.65625 55.3203125 C5.23463821 58.95273019 5.39293005 61.63026266 5.46875 65.8203125 C5.46939453 66.49707031 5.47003906 67.17382812 5.47070312 67.87109375 C5.49803397 70.95036853 5.67592491 73.37933724 6.65625 76.3203125 C7.22914003 82.62210278 7.22914003 82.62210278 4.65625 85.7578125 C3.99625 86.2734375 3.33625 86.7890625 2.65625 87.3203125 C-0.70745321 85.92843531 -2.56281331 84.52599854 -4.34375 81.3203125 C-4.98847893 75.90458948 -3.51031351 70.59067977 -2.34375 65.3203125 C-3.99081553 65.96299687 -5.63637175 66.60955052 -7.28125 67.2578125 C-8.19777344 67.61746094 -9.11429688 67.97710937 -10.05859375 68.34765625 C-12.26793533 69.1199343 -12.26793533 69.1199343 -13.34375 70.3203125 C-15.00992115 70.36095082 -16.67763095 70.3630335 -18.34375 70.3203125 C-18.20267253 71.77911359 -18.05572585 73.23734801 -17.90625 74.6953125 C-17.82503906 75.50742188 -17.74382812 76.31953125 -17.66015625 77.15625 C-17.45284886 79.36304055 -17.45284886 79.36304055 -16.34375 81.3203125 C-15.74377068 86.60013054 -17.16762817 89.1516526 -20.34375 93.3203125 C-22.88278996 92.97010009 -24.16468298 92.48019377 -26.09375 90.7578125 C-27.94757717 87.14284953 -27.60863479 84.35980549 -27.34375 80.3203125 C-27.01375 79.9903125 -26.68375 79.6603125 -26.34375 79.3203125 C-26.11087992 77.63847302 -25.93110834 75.9490709 -25.78125 74.2578125 C-25.69746094 73.33871094 -25.61367188 72.41960937 -25.52734375 71.47265625 C-25.43646484 70.40724609 -25.43646484 70.40724609 -25.34375 69.3203125 C-26.519375 69.2171875 -27.695 69.1140625 -28.90625 69.0078125 C-33.91373229 68.39410685 -37.84671434 66.56883033 -42.34375 64.3203125 C-42.34375 66.6303125 -42.34375 68.9403125 -42.34375 71.3203125 C-44.32375 71.3203125 -46.30375 71.3203125 -48.34375 71.3203125 C-48.34632812 70.4746875 -48.34890625 69.6290625 -48.3515625 68.7578125 C-48.59079351 61.74036951 -49.11841221 57.23900642 -53.96875 52.00390625 C-55.50655314 50.12097115 -55.92862122 48.69173568 -56.34375 46.3203125 C-57.00375 46.3203125 -57.66375 46.3203125 -58.34375 46.3203125 C-62.0484055 36.76230131 -61.71610049 25.19003518 -57.65625 15.7734375 C-52.48811564 6.11394827 -44.34528938 -1.54038669 -34.09375 -5.6796875 C-22.1416843 -8.92962308 -10.064368 -7.21279707 0 0 Z M-46.34375 9.3203125 C-50.5965243 14.96226959 -54.20929255 20.05961022 -54.34375 27.3203125 C-54.37984375 28.02800781 -54.4159375 28.73570313 -54.453125 29.46484375 C-54.83272385 40.60607003 -51.15030233 48.08219209 -43.609375 56.18359375 C-36.30685825 62.93339708 -28.87427569 63.96410667 -19.16796875 63.72265625 C-9.57151489 62.71301912 -3.03691376 59.01862866 3.03515625 51.6015625 C9.35881862 42.70272195 10.79987189 33.63201003 9.09375 22.9453125 C7.2204341 15.41302148 2.528892 9.29336158 -3.78125 4.8828125 C-5.28139405 3.99281107 -6.80177827 3.13570069 -8.34375 2.3203125 C-8.96894531 1.98128906 -9.59414062 1.64226563 -10.23828125 1.29296875 C-22.48114366 -4.30008629 -37.59170669 -0.64102953 -46.34375 9.3203125 Z " fill="#755439" transform="translate(85.34375,22.6796875)"/>
<path d="M0 0 C10.05078572 2.0498313 18.38626162 6.84651621 24.1875 15.296875 C28.9548886 23.53002966 29.36494263 32.71847726 27.375 41.859375 C24.82886749 50.4660201 19.09026853 57.25505005 11.2578125 61.5859375 C4.73400963 64.69895547 4.73400963 64.69895547 1 64.109375 C0.46375 63.903125 -0.0725 63.696875 -0.625 63.484375 C0.055625 62.576875 0.73625 61.669375 1.4375 60.734375 C3.60078346 57.81310268 3.60078346 57.81310268 3.21923828 55.39355469 C2.41636649 53.03152936 2.41636649 53.03152936 -1.1953125 51.6875 C-3.10644531 50.41210938 -3.10644531 50.41210938 -4.625 48.484375 C-5.36792102 43.3699503 -4.91487784 38.3575236 -4.5 33.234375 C-4.36368412 31.13875828 -4.23735006 29.04276879 -4.11404419 26.9463501 C-3.99743777 25.05395609 -3.8564664 23.16311073 -3.71435547 21.27246094 C-3.68486816 20.35239258 -3.65538086 19.43232422 -3.625 18.484375 C-4.67550986 17.38044898 -4.67550986 17.38044898 -6.2890625 16.28515625 C-8.26100441 14.78852305 -9.98944727 13.34492441 -11.625 11.484375 C-11.95613926 7.42791906 -10.91729908 5.8918222 -8.5625 2.609375 C-5.5329117 0.41775793 -3.73836473 -0.2548885 0 0 Z " fill="#4A96BC" transform="translate(66.625,21.515625)"/>
<path d="M0 0 C0 0.33 0 0.66 0 1 C-2.64 1 -5.28 1 -8 1 C-8 2.65 -8 4.3 -8 6 C-8.6290625 6.09796875 -9.258125 6.1959375 -9.90625 6.296875 C-19.08671315 7.90069085 -27.08583811 10.96860687 -32.984375 18.55078125 C-37.58168304 25.71352307 -37.58168304 25.71352307 -39 34 C-39.03609375 34.70769531 -39.0721875 35.41539063 -39.109375 36.14453125 C-39.4843933 47.1513183 -35.9064154 54.58993677 -28.48828125 62.640625 C-21.74542504 68.77385311 -13.74213637 69.53396699 -5 70 C-5.99 70.33 -6.98 70.66 -8 71 C-8 72.65 -8 74.3 -8 76 C-8.66 76 -9.32 76 -10 76 C-10 78.31 -10 80.62 -10 83 C-8.68 83 -7.36 83 -6 83 C-5.67 80.69 -5.34 78.38 -5 76 C-2.69 75.67 -0.38 75.34 2 75 C1.67 75.66 1.34 76.32 1 77 C-0.65 77 -2.3 77 -4 77 C-3.85892253 78.45880109 -3.71197585 79.91703551 -3.5625 81.375 C-3.48128906 82.18710938 -3.40007812 82.99921875 -3.31640625 83.8359375 C-3.10909886 86.04272805 -3.10909886 86.04272805 -2 88 C-1.40002068 93.27981804 -2.82387817 95.8313401 -6 100 C-8.53903996 99.64978759 -9.82093298 99.15988127 -11.75 97.4375 C-13.60382717 93.82253703 -13.26488479 91.03949299 -13 87 C-12.67 86.67 -12.34 86.34 -12 86 C-11.76712992 84.31816052 -11.58735834 82.6287584 -11.4375 80.9375 C-11.35371094 80.01839844 -11.26992188 79.09929687 -11.18359375 78.15234375 C-11.09271484 77.08693359 -11.09271484 77.08693359 -11 76 C-12.175625 75.896875 -13.35125 75.79375 -14.5625 75.6875 C-19.56998229 75.07379435 -23.50296434 73.24851783 -28 71 C-28 73.31 -28 75.62 -28 78 C-29.98 78 -31.96 78 -34 78 C-34.00257812 77.154375 -34.00515625 76.30875 -34.0078125 75.4375 C-34.24704351 68.42005701 -34.77466221 63.91869392 -39.625 58.68359375 C-41.16280314 56.80065865 -41.58487122 55.37142318 -42 53 C-42.66 53 -43.32 53 -44 53 C-47.7046555 43.44198881 -47.37235049 31.86972268 -43.3125 22.453125 C-38.14436564 12.79363577 -30.00153938 5.13930081 -19.75 1 C-13.41761568 -0.81752164 -6.51664034 -0.23181725 0 0 Z " fill="#8E694C" transform="translate(71,16)"/>
<path d="M0 0 C0 0.66 0 1.32 0 2 C0.639375 2.2475 1.27875 2.495 1.9375 2.75 C4 4 4 4 4.62280273 5.79394531 C5.01598435 8.09348516 5.11341376 10.21476414 5.09765625 12.546875 C5.09443359 13.39121094 5.09121094 14.23554687 5.08789062 15.10546875 C5.07951172 15.97816406 5.07113281 16.85085937 5.0625 17.75 C5.05798828 18.63816406 5.05347656 19.52632812 5.04882812 20.44140625 C5.037074 22.62767329 5.02064249 24.81380179 5 27 C-0.22722871 28.04714842 -5.31460885 28.25122626 -10.625 28.3125 C-11.470625 28.34150391 -12.31625 28.37050781 -13.1875 28.40039062 C-19.36517124 28.46372637 -19.36517124 28.46372637 -22.55078125 26.13671875 C-24 24 -24 24 -24.5625 21.5 C-24 19 -24 19 -22.0625 16.9375 C-14.91279661 12.41421826 -9.51416165 10.45941831 -1 11 C-1 9.02 -1 7.04 -1 5 C-4.82226811 3.2012856 -7.77805018 2.5508564 -12 3 C-12.680625 3.515625 -13.36125 4.03125 -14.0625 4.5625 C-16 6 -16 6 -18.75 5.6875 C-19.4925 5.460625 -20.235 5.23375 -21 5 C-20 2 -20 2 -18.1796875 1.05078125 C-11.99773161 -0.92954021 -6.36854657 -2.0379349 0 0 Z " fill="#274568" transform="translate(189,51)"/>
<path d="M0 0 C0 0.66 0 1.32 0 2 C0.66 2 1.32 2 2 2 C4.00169255 7.10719909 4.51120227 11.83537405 4.8125 17.25 C4.87630859 18.0646875 4.94011719 18.879375 5.00585938 19.71875 C5.14453125 22.078125 5.14453125 22.078125 5 26 C0.65161274 28.89892484 -3.26095095 28.32977719 -8.375 28.3125 C-9.32117188 28.32861328 -10.26734375 28.34472656 -11.2421875 28.36132812 C-20.2434767 28.36764926 -20.2434767 28.36764926 -24 25 C-24.8125 21.625 -24.8125 21.625 -24 18 C-19.02199768 13.31554081 -12.38143053 10.91056016 -5.625 10.875 C-4.42875 10.91625 -3.2325 10.9575 -2 11 C-2.66 8.69 -3.32 6.38 -4 4 C-9.37884506 2.70031555 -9.37884506 2.70031555 -14.1875 4.5 C-14.785625 4.995 -15.38375 5.49 -16 6 C-18.75 5.6875 -18.75 5.6875 -21 5 C-20.5 3.125 -20.5 3.125 -19 1 C-12.75455833 -1.11709887 -6.4271262 -2.05668038 0 0 Z " fill="#224164" transform="translate(360,51)"/>
<path d="M0 0 C3 1 3 1 4.5625 4 C5.95714308 7.52635142 6.71755567 11.08295023 7.45703125 14.79296875 C7.99117668 16.96413543 8.73321988 18.79598953 9.6875 20.8125 C11 24 11 24 10.6875 26.4375 C10.460625 26.953125 10.23375 27.46875 10 28 C8.34385343 28.38218767 6.67542976 28.71395102 5 29 C4 28 4 28 3.9375 24.4375 C3.958125 23.303125 3.97875 22.16875 4 21 C3.34 21 2.68 21 2 21 C2 18.69 2 16.38 2 14 C1.34 14 0.68 14 0 14 C0 13.01 0 12.02 0 11 C-4.02559425 13.6837295 -4.69130536 16.47240425 -6 21 C-6.46149689 23.34264613 -6.75220202 25.62113941 -7 28 C-8.98 28.33 -10.96 28.66 -13 29 C-14.43723997 23.35370013 -15.76123355 17.69305433 -17 12 C-17.66 12 -18.32 12 -19 12 C-19.18175781 12.556875 -19.36351562 13.11375 -19.55078125 13.6875 C-21.24862185 18.84196991 -23.06422235 23.93010615 -25 29 C-26.32 29 -27.64 29 -29 29 C-28.56622375 23.90312908 -27.3024579 20.02169243 -25.1015625 15.4140625 C-23.56717806 12.05147532 -22.40080625 8.56797766 -21.22265625 5.06640625 C-19.60789506 2.33730507 -17.97071069 1.89561788 -15 1 C-12.42936943 5.71082997 -10.78433375 9.64038604 -10 15 C-9.34 15.33 -8.68 15.66 -8 16 C-7.81824219 15.33613281 -7.63648438 14.67226562 -7.44921875 13.98828125 C-4.84243048 4.83110196 -4.84243048 4.83110196 -2 1 C-1.34 0.67 -0.68 0.34 0 0 Z " fill="#224164" transform="translate(322,50)"/>
<path d="M0 0 C1.32 0 2.64 0 4 0 C3.99214478 0.87736816 3.99214478 0.87736816 3.98413086 1.77246094 C3.96329842 4.43162963 3.95031993 7.09078111 3.9375 9.75 C3.92912109 10.67039062 3.92074219 11.59078125 3.91210938 12.5390625 C3.90888672 13.42851563 3.90566406 14.31796875 3.90234375 15.234375 C3.89448853 16.45979004 3.89448853 16.45979004 3.88647461 17.70996094 C3.99700979 19.93968135 4.37944433 21.86133755 5 24 C9.69475367 24.92053993 12.72807938 25.31904262 17 23 C19.18611287 21.23985669 19.18611287 21.23985669 19.17944336 19.06054688 C19.14987549 18.28775391 19.12030762 17.51496094 19.08984375 16.71875 C19.05987305 15.45611328 19.05987305 15.45611328 19.02929688 14.16796875 C18.96809419 12.38918439 18.90298909 10.61053003 18.83398438 8.83203125 C18.80594727 7.56939453 18.80594727 7.56939453 18.77734375 6.28125 C18.74890381 5.50845703 18.72046387 4.73566406 18.69116211 3.93945312 C18.79307861 3.29943359 18.89499512 2.65941406 19 2 C22 0 22 0 25 0 C24.98839844 0.93199219 24.97679687 1.86398438 24.96484375 2.82421875 C24.90504641 11.272729 25.20482038 19.57961582 26 28 C24.02 28.33 22.04 28.66 20 29 C20 28.01 20 27.02 20 26 C18.906875 26.495 17.81375 26.99 16.6875 27.5 C11.61779653 29.4011388 6.3520088 29.88191421 1 29 C-0.62841797 27.81713867 -0.62841797 27.81713867 -2 26 C-2.37231445 23.48803711 -2.37231445 23.48803711 -2.36328125 20.52734375 C-2.36263672 19.46322266 -2.36199219 18.39910156 -2.36132812 17.30273438 C-2.34521484 16.19220703 -2.32910156 15.08167969 -2.3125 13.9375 C-2.31572266 12.82310547 -2.31894531 11.70871094 -2.32226562 10.56054688 C-2.26694139 2.26694139 -2.26694139 2.26694139 0 0 Z " fill="#274568" transform="translate(231,50)"/>
<path d="M0 0 C1.32 0 2.64 0 4 0 C4 2.64 4 5.28 4 8 C8.95 8 13.9 8 19 8 C19 6.02 19 4.04 19 2 C22 0 22 0 25 0 C25.25395244 4.4572879 25.47397061 8.91560721 25.6875 13.375 C25.76033203 14.64601563 25.83316406 15.91703125 25.90820312 17.2265625 C25.96298828 18.43828125 26.01777344 19.65 26.07421875 20.8984375 C26.16062622 22.57945557 26.16062622 22.57945557 26.2487793 24.29443359 C26.16668213 25.18727051 26.08458496 26.08010742 26 27 C23 29 23 29 20 29 C19.67 23.39 19.34 17.78 19 12 C14.05 11.67 9.1 11.34 4 11 C4 16.61 4 22.22 4 28 C2.35 28.33 0.7 28.66 -1 29 C-1.22506224 24.54234428 -1.4272243 20.08394312 -1.625 15.625 C-1.68945312 14.35398437 -1.75390625 13.08296875 -1.8203125 11.7734375 C-1.871875 10.56171875 -1.9234375 9.35 -1.9765625 8.1015625 C-2.02893066 6.98088379 -2.08129883 5.86020508 -2.13525391 4.70556641 C-2 2 -2 2 0 0 Z " fill="#203E63" transform="translate(373,50)"/>
<path d="M0 0 C3.37765118 0.02375282 6.31220639 0.29064795 9.5625 1.1875 C14.14866782 2.35053896 18.60957447 2.37896495 23.3125 2.375 C24.42540405 2.3759668 24.42540405 2.3759668 25.56079102 2.37695312 C29.00186194 2.34250719 32.21174748 2.266323 35.5 1.1875 C33.75 5.0625 33.75 5.0625 31.5 6.1875 C26.65582302 6.34897257 22.27125662 6.14175132 17.5 5.1875 C17.5 7.8275 17.5 10.4675 17.5 13.1875 C16.84 13.1875 16.18 13.1875 15.5 13.1875 C15.83 13.8475 16.16 14.5075 16.5 15.1875 C16.92202934 19.34261511 17.06101988 23.5161096 17.25 27.6875 C17.35248047 29.43740234 17.35248047 29.43740234 17.45703125 31.22265625 C17.53244141 32.89134766 17.53244141 32.89134766 17.609375 34.59375 C17.66061523 35.61791016 17.71185547 36.64207031 17.76464844 37.69726562 C17.63364746 38.92993164 17.63364746 38.92993164 17.5 40.1875 C14.5 42.1875 14.5 42.1875 11.5 42.1875 C11.5 29.9775 11.5 17.7675 11.5 5.1875 C1.64372804 4.16722627 1.64372804 4.16722627 -7.5 5.1875 C-5.36902805 0.7834913 -4.96077997 0.03827762 0 0 Z " fill="#274467" transform="translate(126.5,36.8125)"/>
<path d="M0 0 C3 1 3 1 4.17578125 3.30078125 C4.55089844 4.29464844 4.92601562 5.28851563 5.3125 6.3125 C7.51026711 11.93125629 10.09902573 17.1959763 12.9609375 22.50390625 C14 25 14 25 13 28 C11.35 28.33 9.7 28.66 8 29 C7.5875 27.865625 7.175 26.73125 6.75 25.5625 C5.29091685 21.65076756 3.62408076 17.86429806 1.8671875 14.078125 C1.02744376 12.06576612 0.46927188 10.12608892 0 8 C-2.68211992 10.33923527 -3.77605138 12.49253938 -5 15.8125 C-5.34160156 16.69421875 -5.68320313 17.5759375 -6.03515625 18.484375 C-6.51275391 19.72960937 -6.51275391 19.72960937 -7 21 C-8.4375 24.5625 -8.4375 24.5625 -10 27 C-12.6875 27.875 -12.6875 27.875 -15 28 C-14.40164286 24.11351961 -13.22609988 21.17969724 -11.34765625 17.734375 C-10.81849609 16.76242188 -10.28933594 15.79046875 -9.74414062 14.7890625 C-9.18919922 13.78617188 -8.63425781 12.78328125 -8.0625 11.75 C-7.51142578 10.73164062 -6.96035156 9.71328125 -6.39257812 8.6640625 C-2.25846922 1.12923461 -2.25846922 1.12923461 0 0 Z " fill="#224064" transform="translate(212,50)"/>
<path d="M0 0 C1.63001953 0.15275391 1.63001953 0.15275391 3.29296875 0.30859375 C4.12441406 0.39238281 4.95585937 0.47617187 5.8125 0.5625 C5.20703125 2.53515625 5.20703125 2.53515625 3.8125 4.5625 C0.94921875 4.99609375 0.94921875 4.99609375 -2.5 5 C-6.74191048 5.22548361 -8.83024013 5.35740637 -12.5625 7.5 C-14.63419835 11.40435458 -14.58972852 14.00664601 -13.87890625 18.31640625 C-13.31692004 20.72778364 -13.31692004 20.72778364 -11.25 22.625 C-5.78959427 24.29655277 -0.49019473 25.66587456 4.8125 23.125 C5.4725 22.609375 6.1325 22.09375 6.8125 21.5625 C7.4725 21.5625 8.1325 21.5625 8.8125 21.5625 C8.5 23.4375 8.5 23.4375 7.8125 25.5625 C2.92354637 28.82180242 -2.386482 29.1988091 -8.1875 28.5625 C-10.97551349 27.7455693 -13.50833819 26.7107122 -16.1875 25.5625 C-16.1875 24.9025 -16.1875 24.2425 -16.1875 23.5625 C-17.1775 23.2325 -18.1675 22.9025 -19.1875 22.5625 C-20.77445652 13.83423913 -20.77445652 13.83423913 -18.6875 9.3125 C-12.86941667 2.91260834 -8.99642615 -0.87062189 0 0 Z " fill="#2B486B" transform="translate(282.1875,50.4375)"/>
<path d="M0 0 C3 1 3 1 4.5625 4 C5.95714308 7.52635142 6.71755567 11.08295023 7.45703125 14.79296875 C7.99117668 16.96413543 8.73321988 18.79598953 9.6875 20.8125 C11 24 11 24 10.6875 26.4375 C10.460625 26.953125 10.23375 27.46875 10 28 C8.34385343 28.38218767 6.67542976 28.71395102 5 29 C4 28 4 28 3.9375 24.4375 C3.958125 23.303125 3.97875 22.16875 4 21 C3.34 21 2.68 21 2 21 C2 18.69 2 16.38 2 14 C1.34 14 0.68 14 0 14 C0 13.01 0 12.02 0 11 C-0.99 11.33 -1.98 11.66 -3 12 C-3.33 11.34 -3.66 10.68 -4 10 C-4.99 10.99 -5.98 11.98 -7 13 C-4.29384966 3.40546697 -4.29384966 3.40546697 0 0 Z " fill="#264467" transform="translate(322,50)"/>
<path d="M0 0 C3.69900008 0.88776002 7.34550461 1.94581864 11 3 C10.85962479 4.81293089 10.71255111 6.6253443 10.5625 8.4375 C10.48128906 9.44683594 10.40007813 10.45617187 10.31640625 11.49609375 C10 14 10 14 9 15 C7.19187276 15.15091913 5.37669383 15.22169008 3.5625 15.25 C2.57378906 15.27578125 1.58507813 15.3015625 0.56640625 15.328125 C-0.28050781 15.21984375 -1.12742188 15.1115625 -2 15 C-4.4915904 11.2626144 -4.45793285 9.42668417 -4 5 C-2 2.0625 -2 2.0625 0 0 Z " fill="#F0F9F9" transform="translate(39,58)"/>
<path d="M0 0 C0.33 3.63 0.66 7.26 1 11 C-7.21052632 14.42105263 -7.21052632 14.42105263 -11 13 C-13.66211846 10.52803286 -13.98916821 9.08820168 -14.4375 5.4375 C-14 2 -14 2 -12.4375 0.0625 C-8.19337839 -1.78750173 -4.32344787 -1.44114929 0 0 Z " fill="#F2F9FA" transform="translate(49,36)"/>
<path d="M0 0 C-0.01160156 0.93199219 -0.02320313 1.86398438 -0.03515625 2.82421875 C-0.09495359 11.272729 0.20482038 19.57961582 1 28 C-0.98 28.33 -2.96 28.66 -5 29 C-5 28.01 -5 27.02 -5 26 C-5.5775 26.20625 -6.155 26.4125 -6.75 26.625 C-9.51967567 27.08661261 -10.64561267 26.42944945 -13 25 C-12.21625 24.71125 -11.4325 24.4225 -10.625 24.125 C-7.90328368 23.15087746 -7.90328368 23.15087746 -6 21 C-5.77216104 18.99600839 -5.77216104 18.99600839 -5.91015625 16.71875 C-5.93013672 15.87699219 -5.95011719 15.03523438 -5.97070312 14.16796875 C-6.03190581 12.38918439 -6.09701091 10.61053003 -6.16601562 8.83203125 C-6.18470703 7.99027344 -6.20339844 7.14851563 -6.22265625 6.28125 C-6.25109619 5.50845703 -6.27953613 4.73566406 -6.30883789 3.93945312 C-6.15596313 2.97942383 -6.15596313 2.97942383 -6 2 C-3 0 -3 0 0 0 Z " fill="#304D6E" transform="translate(256,50)"/>
<path d="M0 0 C2.82774287 1.11621429 4.87570614 2.21352391 6.625 4.75 C7.63817513 7.70509412 7.51578114 9.01424834 6.375 11.9375 C4.49412245 13.84442848 2.53601862 15.32823081 0.375 16.9375 C-3.06095166 15.41041037 -5.74412454 13.33822955 -8.625 10.9375 C-8.35231275 7.0289828 -7.78893951 5.15153214 -5.375 2 C-2.625 -0.0625 -2.625 -0.0625 0 0 Z " fill="#F1F8F9" transform="translate(63.625,22.0625)"/>
<path d="M0 0 C0 2.64 0 5.28 0 8 C-5.36903246 11.8516972 -8.53984968 12.33087188 -15.05859375 11.359375 C-15.69925781 11.24078125 -16.33992187 11.1221875 -17 11 C-17.375 7.75 -17.375 7.75 -17 4 C-11.18713667 -1.02020015 -7.34089184 -1.27053897 0 0 Z " fill="#F7F8FA" transform="translate(188,65)"/>
<path d="M0 0 C0.5 3.1875 0.5 3.1875 0 7 C-3.25978861 10.27600646 -6.77036973 11.837596 -11.3125 12.4375 C-14 12 -14 12 -17 10 C-17.5 7.125 -17.5 7.125 -17 4 C-11.50538836 -1.64723974 -7.28064277 -1.09209642 0 0 Z " fill="#F3F4F6" transform="translate(359,65)"/>
<path d="M0 0 C1.625 1.375 1.625 1.375 3.625 4.375 C4.0766129 10.69758065 4.0766129 10.69758065 1.625 14.375 C-0.7578125 14.66796875 -0.7578125 14.66796875 -3.5 14.5625 C-4.41007812 14.53542969 -5.32015625 14.50835937 -6.2578125 14.48046875 C-6.95648438 14.44566406 -7.65515625 14.41085938 -8.375 14.375 C-9.96638085 10.19762526 -10.58778058 6.84339215 -10.375 2.375 C-3.23091705 -0.85024133 -3.23091705 -0.85024133 0 0 Z " fill="#F3F8FA" transform="translate(87.375,58.625)"/>
<path d="M0 0 C2 2 2 2 2.375 5.3125 C1.94805086 9.51083317 0.88994071 11.01974864 -2 14 C-5.8063457 13.32829194 -9.35206816 12.27253436 -13 11 C-12.34 7.37 -11.68 3.74 -11 0 C-6.88092254 -1.37302582 -4.27865333 -0.74706646 0 0 Z " fill="#F5F9FB" transform="translate(89,36)"/>
<path d="M0 0 C3.48763093 1.74381547 6.03368051 3.52806709 9 6 C8.49930857 10.38104998 7.21775827 12.95617461 4 16 C0.9375 16.5625 0.9375 16.5625 -2 16 C-4.97059714 13.24158837 -5.87059334 9.82260714 -7 6 C-4.69 4.02 -2.38 2.04 0 0 Z " fill="#F6FBFC" transform="translate(62,70)"/>
<path d="M0 0 C-1 1 -1 1 -3.5625 1.0625 C-4.7690625 1.0315625 -4.7690625 1.0315625 -6 1 C-5.85892253 2.45880109 -5.71197585 3.91703551 -5.5625 5.375 C-5.44068359 6.59316406 -5.44068359 6.59316406 -5.31640625 7.8359375 C-5.10909886 10.04272805 -5.10909886 10.04272805 -4 12 C-3.40002068 17.27981804 -4.82387817 19.8313401 -8 24 C-10.53903996 23.64978759 -11.82093298 23.15988127 -13.75 21.4375 C-15.53868636 17.9495616 -15.72450116 14.84300615 -15 11 C-13.1875 8.5 -13.1875 8.5 -11 7 C-10.01 7 -9.02 7 -8 7 C-7.67 4.69 -7.34 2.38 -7 0 C-2.25 -1.125 -2.25 -1.125 0 0 Z " fill="#E6B56E" transform="translate(73,92)"/>
<path d="M0 0 C0.33 0 0.66 0 1 0 C1.06058594 0.97582031 1.12117188 1.95164062 1.18359375 2.95703125 C1.26738281 4.22933594 1.35117188 5.50164062 1.4375 6.8125 C1.51871094 8.07707031 1.59992188 9.34164062 1.68359375 10.64453125 C1.87184547 13.99181893 1.87184547 13.99181893 3 17 C3.57289003 23.30179028 3.57289003 23.30179028 1 26.4375 C0.01 27.2109375 0.01 27.2109375 -1 28 C-4.36370321 26.60812281 -6.21906331 25.20568604 -8 22 C-8.24895157 18.88810534 -8.40457737 16.80915474 -7 14 C-6.93049459 12.45976004 -6.91547643 10.91665012 -6.9375 9.375 C-6.94652344 8.55773437 -6.95554687 7.74046875 -6.96484375 6.8984375 C-6.97644531 6.27195312 -6.98804687 5.64546875 -7 5 C-6.34 5 -5.68 5 -5 5 C-5 7.31 -5 9.62 -5 12 C-3.68 11.67 -2.36 11.34 -1 11 C-0.67 7.37 -0.34 3.74 0 0 Z " fill="#E2AF67" transform="translate(89,82)"/>
<path d="M0 0 C0.33 0 0.66 0 1 0 C1 4.29 1 8.58 1 13 C2.32 12.67 3.64 12.34 5 12 C6.6875 12.9375 6.6875 12.9375 8 15 C9.62569999 21.61117994 9.62569999 21.61117994 8.1640625 24.85546875 C7.0625 26.5 7.0625 26.5 5 29 C1.63629679 27.60812281 -0.21906331 26.20568604 -2 23 C-2.24895157 19.88810534 -2.40457737 17.80915474 -1 15 C-0.76827173 12.45384991 -0.58105471 9.92603775 -0.4375 7.375 C-0.39431641 6.66859375 -0.35113281 5.9621875 -0.30664062 5.234375 C-0.20055249 3.48981463 -0.09977111 1.74493303 0 0 Z " fill="#F5C67A" transform="translate(36,81)"/>
<path d="M0 0 C0.33 0.66 0.66 1.32 1 2 C1.99 2 2.98 2 4 2 C4 2.66 4 3.32 4 4 C3.54625 4.43699219 3.0925 4.87398437 2.625 5.32421875 C0.65821113 7.35246977 -0.0257097 9.16973755 -1 11.8125 C-1.34160156 12.69421875 -1.68320313 13.5759375 -2.03515625 14.484375 C-2.35355469 15.31453125 -2.67195312 16.1446875 -3 17 C-4.4375 20.5625 -4.4375 20.5625 -6 23 C-8.6875 23.875 -8.6875 23.875 -11 24 C-10.41584531 20.38606692 -9.44519602 17.57523816 -7.71484375 14.35546875 C-7.04291992 13.09379883 -7.04291992 13.09379883 -6.35742188 11.80664062 C-5.88884766 10.94232422 -5.42027344 10.07800781 -4.9375 9.1875 C-4.46505859 8.30384766 -3.99261719 7.42019531 -3.50585938 6.50976562 C-2.34296716 4.33668422 -1.17421625 2.16697716 0 0 Z " fill="#334F70" transform="translate(208,54)"/>
<path d="M0 0 C0.93423645 3.01031744 1.04449911 3.86650268 0 7 C0.66 7.33 1.32 7.66 2 8 C0.13236819 13.72210596 -1.85289032 19.37661751 -4 25 C-5.32 25 -6.64 25 -8 25 C-7.56291409 19.86424053 -6.24736077 16.00489638 -4.0546875 11.35546875 C-2.40448665 7.67002019 -1.20167666 3.85082747 0 0 Z " fill="#2F4B6D" transform="translate(301,54)"/>
<path d="M0 0 C-0.33 0.66 -0.66 1.32 -1 2 C-1.99 1.67 -2.98 1.34 -4 1 C-4 1.66 -4 2.32 -4 3 C-5.2375 2.938125 -6.475 2.87625 -7.75 2.8125 C-11.58319262 2.78555313 -12.9971989 3.61846809 -16 6 C-18.75 5.6875 -18.75 5.6875 -21 5 C-20.5 3.125 -20.5 3.125 -19 1 C-12.75455833 -1.11709887 -6.4271262 -2.05668038 0 0 Z " fill="#2E4B6C" transform="translate(360,51)"/>
<path d="M0 0 C0.99 0 1.98 0 3 0 C3 4.95 3 9.9 3 15 C3.66 15.33 4.32 15.66 5 16 C2.46096004 15.64978759 1.17906702 15.15988127 -0.75 13.4375 C-2.63044044 9.77064114 -2.32613053 7.10924462 -2 3 C-1.34 2.01 -0.68 1.02 0 0 Z " fill="#F9C776" transform="translate(60,100)"/>
<path d="M0 0 C-1.32 0.33 -2.64 0.66 -4 1 C-4 1.66 -4 2.32 -4 3 C-5.7015625 3.7115625 -5.7015625 3.7115625 -7.4375 4.4375 C-10.75740166 5.63622083 -10.75740166 5.63622083 -12 7 C-12.04092937 9.33297433 -12.04241723 11.66705225 -12 14 C-12.66 14 -13.32 14 -14 14 C-14.33 12.35 -14.66 10.7 -15 9 C-17.51083114 10.25541557 -17.87125446 11.50063488 -19 14 C-19.5 10.8125 -19.5 10.8125 -19 7 C-14.00258466 2.20148676 -6.86532877 -0.40384287 0 0 Z " fill="#405A79" transform="translate(355,62)"/>
<path d="M0 0 C0.33 0.66 0.66 1.32 1 2 C1.99 2 2.98 2 4 2 C4 2.66 4 3.32 4 4 C3.54753906 4.43183594 3.09507812 4.86367188 2.62890625 5.30859375 C0.6144901 7.40030165 -0.073283 9.34315448 -1.0625 12.0625 C-2.79166667 16.79166667 -2.79166667 16.79166667 -5 19 C-4.67 16.69 -4.34 14.38 -4 12 C-4.99 12.495 -4.99 12.495 -6 13 C-4.31326082 8.50202887 -2.18326108 4.27113698 0 0 Z " fill="#345071" transform="translate(208,54)"/>
<path d="M0 0 C-2.65197185 2.65197185 -5.55356766 3.584501 -9 5 C-11.33075929 5.95865509 -11.33075929 5.95865509 -13 9 C-13.33 8.34 -13.66 7.68 -14 7 C-14.99 7.33 -15.98 7.66 -17 8 C-17.73323796 10.01508358 -17.73323796 10.01508358 -18 12 C-18.3125 9.75 -18.3125 9.75 -18 7 C-13.73923103 2.46434271 -6.2581338 -2.19957084 0 0 Z " fill="#425C7A" transform="translate(183,63)"/>
<path d="M0 0 C0 0.33 0 0.66 0 1 C-1.65 1 -3.3 1 -5 1 C-5 1.66 -5 2.32 -5 3 C-11.27692308 7.06153846 -11.27692308 7.06153846 -14.9375 6.75 C-15.618125 6.5025 -16.29875 6.255 -17 6 C-16 3 -16 3 -14.1796875 2.05078125 C-9.24482262 0.46995165 -5.18102823 -0.33070393 0 0 Z " fill="#314D6F" transform="translate(185,50)"/>
<path d="M0 0 C0.66 0.33 1.32 0.66 2 1 C2 2.65 2 4.3 2 6 C3.66666667 6.33333333 5.33333333 6.66666667 7 7 C8.66666667 7.33333333 10.33333333 7.66666667 12 8 C12 8.33 12 8.66 12 9 C10.41705218 9.05437607 8.83355744 9.09296271 7.25 9.125 C6.36828125 9.14820312 5.4865625 9.17140625 4.578125 9.1953125 C1.8864142 8.99139502 0.30095026 8.36551721 -2 7 C-2.125 4.625 -2.125 4.625 -2 2 C-1.34 1.34 -0.68 0.68 0 0 Z " fill="#18385D" transform="translate(339,70)"/>
<path d="M0 0 C0.99773437 0.02320313 1.99546875 0.04640625 3.0234375 0.0703125 C4.52777344 0.09738281 4.52777344 0.09738281 6.0625 0.125 C6.83335937 0.14820313 7.60421875 0.17140625 8.3984375 0.1953125 C7.7384375 1.5153125 7.0784375 2.8353125 6.3984375 4.1953125 C5.1403125 4.2365625 3.8821875 4.2778125 2.5859375 4.3203125 C1.87824219 4.34351563 1.17054688 4.36671875 0.44140625 4.390625 C-1.6015625 4.1953125 -1.6015625 4.1953125 -4.6015625 2.1953125 C-2.6015625 0.1953125 -2.6015625 0.1953125 0 0 Z " fill="#1C3B60" transform="translate(279.6015625,50.8046875)"/>
<path d="M0 0 C2 3 2 3 2 7 C2.99 7 3.98 7 5 7 C5 7.66 5 8.32 5 9 C2.125 9.125 2.125 9.125 -1 9 C-3 7 -3 7 -3.3125 4.5 C-3.209375 3.675 -3.10625 2.85 -3 2 C-2.01 1.34 -1.02 0.68 0 0 Z " fill="#15355B" transform="translate(169,69)"/>
<path d="M0 0 C0.66 0 1.32 0 2 0 C2 3.63 2 7.26 2 11 C0.68 10.67 -0.64 10.34 -2 10 C-2 7.36 -2 4.72 -2 2 C-1.34 2 -0.68 2 0 2 C0 1.34 0 0.68 0 0 Z " fill="#563823" transform="translate(87,83)"/>
<path d="M0 0 C0.66 0 1.32 0 2 0 C1.67 0.99 1.34 1.98 1 3 C0.91708047 4.9920303 0.89261823 6.98673713 0.90234375 8.98046875 C0.90556641 10.14384766 0.90878906 11.30722656 0.91210938 12.50585938 C0.92048828 13.72080078 0.92886719 14.93574219 0.9375 16.1875 C0.94201172 17.41404297 0.94652344 18.64058594 0.95117188 19.90429688 C0.96296935 22.93624668 0.97943079 25.96809906 1 29 C0.34 29 -0.32 29 -1 29 C-1.22506224 24.54234428 -1.4272243 20.08394312 -1.625 15.625 C-1.68945312 14.35398437 -1.75390625 13.08296875 -1.8203125 11.7734375 C-1.871875 10.56171875 -1.9234375 9.35 -1.9765625 8.1015625 C-2.02893066 6.98088379 -2.08129883 5.86020508 -2.13525391 4.70556641 C-2 2 -2 2 0 0 Z " fill="#425C7A" transform="translate(373,50)"/>
<path d="M0 0 C1.65 0 3.3 0 5 0 C5 2.64 5 5.28 5 8 C3.35 7.67 1.7 7.34 0 7 C0 4.69 0 2.38 0 0 Z " fill="#66442B" transform="translate(61,92)"/>
<path d="M0 0 C1.98 0.99 1.98 0.99 4 2 C4 4.97 4 7.94 4 11 C2.68 10.67 1.36 10.34 0 10 C0 6.7 0 3.4 0 0 Z " fill="#744E30" transform="translate(38,83)"/>
<path d="M0 0 C0.66 0.33 1.32 0.66 2 1 C-2.29 5.29 -6.58 9.58 -11 14 C-11 10.30159372 -10.17133056 9.68584567 -7.75 7 C-7.14671875 6.319375 -6.5434375 5.63875 -5.921875 4.9375 C-4.06233388 3.06284066 -2.15205789 1.52358081 0 0 Z " fill="#A07D63" transform="translate(42,22)"/>
<path d="M0 0 C0.33 0.99 0.66 1.98 1 3 C1.99 3 2.98 3 4 3 C4.33 5.31 4.66 7.62 5 10 C4.67 9.01 4.34 8.02 4 7 C3.01 7.33 2.02 7.66 1 8 C0.67 7.34 0.34 6.68 0 6 C-0.99 6.99 -1.98 7.98 -3 9 C-2.01 6.03 -1.02 3.06 0 0 Z " fill="#607690" transform="translate(318,54)"/>
<path d="M0 0 C0.33 1.98 0.66 3.96 1 6 C-2.65316671 4.75023244 -3.78065836 4.32901247 -6 1 C-3 0 -3 0 0 0 Z " fill="#C4DFDF" transform="translate(50,78)"/>
<path d="M0 0 C1 4 1 4 0 7 C0.66 7.33 1.32 7.66 2 8 C1.34 9.32 0.68 10.64 0 12 C-0.99 11.67 -1.98 11.34 -3 11 C-2.01 7.37 -1.02 3.74 0 0 Z " fill="#405A79" transform="translate(301,54)"/>
<path d="M0 0 C1.08667969 0.01804688 2.17335938 0.03609375 3.29296875 0.0546875 C4.54013672 0.08949219 4.54013672 0.08949219 5.8125 0.125 C5.8125 0.455 5.8125 0.785 5.8125 1.125 C5.06484375 1.15078125 4.3171875 1.1765625 3.546875 1.203125 C-2.55744772 1.38143155 -2.55744772 1.38143155 -7.75 4.1875 C-8.224375 4.826875 -8.69875 5.46625 -9.1875 6.125 C-9.8475 6.125 -10.5075 6.125 -11.1875 6.125 C-8.75134071 0.50309394 -5.8709133 -0.1262562 0 0 Z " fill="#C5CDD6" transform="translate(279.1875,54.875)"/>
<path d="M0 0 C-0.33 1.65 -0.66 3.3 -1 5 C-2.98 5 -4.96 5 -7 5 C-5.22678182 1.07358831 -4.52021524 0 0 0 Z " fill="#D0DEDB" transform="translate(51,25)"/>
<path d="M0 0 C0.66 0.33 1.32 0.66 2 1 C1.38722388 3.96175123 0.74627478 5.38058783 -1 8 C-1.66 8 -2.32 8 -3 8 C-2.25 2.25 -2.25 2.25 0 0 Z " fill="#C8EAED" transform="translate(58,60)"/>
<path d="M0 0 C1.32 0.99 2.64 1.98 4 3 C3.67 4.65 3.34 6.3 3 8 C2.01 8 1.02 8 0 8 C0 5.36 0 2.72 0 0 Z " fill="#D4E4E3" transform="translate(31,50)"/>
<path d="M0 0 C4.875 4.625 4.875 4.625 6 8 C4.125 7.6875 4.125 7.6875 2 7 C0 4 0 4 0 0 Z " fill="#CBEBEE" transform="translate(55,40)"/>
<path d="M0 0 C1.125 1.5625 1.125 1.5625 2 4 C0.69565217 10.30434783 0.69565217 10.30434783 -2 13 C-1.67 10.69 -1.34 8.38 -1 6 C-1.99 6.495 -1.99 6.495 -3 7 C-1.125 2.25 -1.125 2.25 0 0 Z " fill="#6D8199" transform="translate(205,60)"/>
<path d="M0 0 C1.37478516 0.01740234 1.37478516 0.01740234 2.77734375 0.03515625 C3.69644531 0.04417969 4.61554688 0.05320313 5.5625 0.0625 C6.27277344 0.07410156 6.98304688 0.08570313 7.71484375 0.09765625 C7.71484375 0.42765625 7.71484375 0.75765625 7.71484375 1.09765625 C5.07484375 1.42765625 2.43484375 1.75765625 -0.28515625 2.09765625 C-0.61515625 3.08765625 -0.94515625 4.07765625 -1.28515625 5.09765625 C-2.60515625 5.09765625 -3.92515625 5.09765625 -5.28515625 5.09765625 C-2.87806166 0.12299409 -2.87806166 0.12299409 0 0 Z " fill="#3E5978" transform="translate(124.28515625,36.90234375)"/>
<path d="M0 0 C-0.1875 1.875 -0.1875 1.875 -1 4 C-3.5625 5.25 -3.5625 5.25 -6 6 C-6.33 5.01 -6.66 4.02 -7 3 C-2.25 0 -2.25 0 0 0 Z " fill="#334F70" transform="translate(291,72)"/>
<path d="M0 0 C2.31 0.33 4.62 0.66 7 1 C5 3 5 3 1.875 3.125 C0.451875 3.063125 0.451875 3.063125 -1 3 C-0.67 2.01 -0.34 1.02 0 0 Z " fill="#D4E9F0" transform="translate(72,53)"/>
<path d="M0 0 C2.31 0 4.62 0 7 0 C6.01 1.485 6.01 1.485 5 3 C2.375 3.1875 2.375 3.1875 0 3 C0 2.01 0 1.02 0 0 Z " fill="#DBF1F3" transform="translate(49,53)"/>
<path d="M0 0 C2.02045442 0.60183749 4.02111039 1.27306096 6 2 C6.33 2.66 6.66 3.32 7 4 C5.35 4.33 3.7 4.66 2 5 C1.34 3.35 0.68 1.7 0 0 Z " fill="#D0DCDF" transform="translate(75,25)"/>
<path d="M0 0 C0.66 0.33 1.32 0.66 2 1 C1.34 1.556875 0.68 2.11375 0 2.6875 C-2.25492211 4.84062308 -2.25492211 4.84062308 -2.25 7.75 C-2.1675 8.4925 -2.085 9.235 -2 10 C-2.66 10 -3.32 10 -4 10 C-4.25 6.6875 -4.25 6.6875 -4 3 C-2 1.0625 -2 1.0625 0 0 Z " fill="#C1C9D3" transform="translate(175,66)"/>
<path d="M0 0 C1.32 0.33 2.64 0.66 4 1 C4.33 2.98 4.66 4.96 5 7 C3.29115995 5.37660195 1.62553283 3.70680947 0 2 C0 1.34 0 0.68 0 0 Z " fill="#D5E9F0" transform="translate(66,61)"/>
<path d="M0 0 C0.99 0.495 0.99 0.495 2 1 C2.34342449 2.33076989 2.67619874 3.66431979 3 5 C3.66 5.66 4.32 6.32 5 7 C4.67 7.66 4.34 8.32 4 9 C3.01 8.67 2.02 8.34 1 8 C0.67 5.36 0.34 2.72 0 0 Z " fill="#C7CFD8" transform="translate(310,57)"/>
<path d="M0 0 C0.33 0.99 0.66 1.98 1 3 C-0.375 5.6875 -0.375 5.6875 -2 8 C-2.33 8 -2.66 8 -3 8 C-3.36923077 3.44615385 -3.36923077 3.44615385 -1.5 1.1875 C-1.005 0.795625 -0.51 0.40375 0 0 Z " fill="#D7EAF1" transform="translate(70,41)"/>
</svg>
