<?xml version="1.0" encoding="UTF-8"?>
<svg version="1.1" xmlns="http://www.w3.org/2000/svg" width="690" height="208">
<path d="M0 0 C227.7 0 455.4 0 690 0 C690 68.64 690 137.28 690 208 C462.3 208 234.6 208 0 208 C0 139.36 0 70.72 0 0 Z " fill="#FEFEFE" transform="translate(0,0)"/>
<path d="M0 0 C15.69753374 13.54829302 26.60508861 31.70256776 28.57910156 52.57373047 C29.98406077 75.16353054 23.20323547 93.48737805 9.3515625 111.16796875 C8.65458252 111.76585205 7.95760254 112.36373535 7.23950195 112.97973633 C4.77776147 115.83303775 4.8153658 117.51400021 4.7421875 121.24609375 C4.70996094 122.40625 4.67773438 123.56640625 4.64453125 124.76171875 C4.63035156 125.96828125 4.61617187 127.17484375 4.6015625 128.41796875 C4.57191406 129.64 4.54226562 130.86203125 4.51171875 132.12109375 C4.44103848 135.13678519 4.38833075 138.15170425 4.3515625 141.16796875 C2.3715625 140.17796875 2.3715625 140.17796875 0.3515625 139.16796875 C0.3515625 138.50796875 0.3515625 137.84796875 0.3515625 137.16796875 C-0.4321875 137.64234375 -1.2159375 138.11671875 -2.0234375 138.60546875 C-3.53792428 139.50694898 -5.0720272 140.3797636 -6.6484375 141.16796875 C-6.6484375 135.88796875 -6.6484375 130.60796875 -6.6484375 125.16796875 C-8.6696875 126.24046875 -10.6909375 127.31296875 -12.7734375 128.41796875 C-22.1766945 133.22650306 -32.08914542 136.32322538 -42.6484375 137.16796875 C-42.6484375 142.44796875 -42.6484375 147.72796875 -42.6484375 153.16796875 C-44.6284375 152.17796875 -44.6284375 152.17796875 -46.6484375 151.16796875 C-50.9484375 150.76796875 -50.9484375 150.76796875 -54.6484375 154.16796875 C-54.6484375 148.55796875 -54.6484375 142.94796875 -54.6484375 137.16796875 C-57.4328125 136.82765625 -57.4328125 136.82765625 -60.2734375 136.48046875 C-70.36064128 134.92774415 -80.03699827 131.70389397 -88.6484375 126.16796875 C-88.9784375 131.11796875 -89.3084375 136.06796875 -89.6484375 141.16796875 C-90.9684375 140.50796875 -92.2884375 139.84796875 -93.6484375 139.16796875 C-97.9484375 138.76796875 -97.9484375 138.76796875 -101.6484375 142.16796875 C-101.6484375 132.92796875 -101.6484375 123.68796875 -101.6484375 114.16796875 C-102.6384375 113.83796875 -103.6284375 113.50796875 -104.6484375 113.16796875 C-120.63601707 95.75513983 -125.64974708 73.78614901 -124.83203125 50.7265625 C-124.4135453 44.89447111 -122.72252136 39.62178927 -120.6484375 34.16796875 C-120.10509766 32.61722656 -120.10509766 32.61722656 -119.55078125 31.03515625 C-116.70701389 23.49676277 -112.63426102 17.45667207 -107.6484375 11.16796875 C-106.8646875 10.11609375 -106.0809375 9.06421875 -105.2734375 7.98046875 C-96.42473117 -1.50028803 -83.36978299 -10.52099612 -70.6484375 -13.83203125 C-69.87628906 -14.03441406 -69.10414062 -14.23679687 -68.30859375 -14.4453125 C-44.41726595 -19.48408608 -19.22727699 -15.55815082 0 0 Z " fill="#4191B9" transform="translate(134.6484375,17.83203125)"/>
<path d="M0 0 C15.69753374 13.54829302 26.60508861 31.70256776 28.57910156 52.57373047 C29.98406077 75.16353054 23.20323547 93.48737805 9.3515625 111.16796875 C8.65458252 111.76585205 7.95760254 112.36373535 7.23950195 112.97973633 C4.77776147 115.83303775 4.8153658 117.51400021 4.7421875 121.24609375 C4.70996094 122.40625 4.67773438 123.56640625 4.64453125 124.76171875 C4.63035156 125.96828125 4.61617187 127.17484375 4.6015625 128.41796875 C4.57191406 129.64 4.54226562 130.86203125 4.51171875 132.12109375 C4.44103848 135.13678519 4.38833075 138.15170425 4.3515625 141.16796875 C2.3715625 140.17796875 2.3715625 140.17796875 0.3515625 139.16796875 C0.3515625 138.50796875 0.3515625 137.84796875 0.3515625 137.16796875 C-0.4321875 137.64234375 -1.2159375 138.11671875 -2.0234375 138.60546875 C-3.53792428 139.50694898 -5.0720272 140.3797636 -6.6484375 141.16796875 C-6.6484375 135.88796875 -6.6484375 130.60796875 -6.6484375 125.16796875 C-8.6696875 126.24046875 -10.6909375 127.31296875 -12.7734375 128.41796875 C-22.1766945 133.22650306 -32.08914542 136.32322538 -42.6484375 137.16796875 C-42.6484375 142.44796875 -42.6484375 147.72796875 -42.6484375 153.16796875 C-44.6284375 152.17796875 -44.6284375 152.17796875 -46.6484375 151.16796875 C-50.9484375 150.76796875 -50.9484375 150.76796875 -54.6484375 154.16796875 C-54.6484375 148.55796875 -54.6484375 142.94796875 -54.6484375 137.16796875 C-57.4328125 136.82765625 -57.4328125 136.82765625 -60.2734375 136.48046875 C-70.36064128 134.92774415 -80.03699827 131.70389397 -88.6484375 126.16796875 C-88.9784375 131.11796875 -89.3084375 136.06796875 -89.6484375 141.16796875 C-90.9684375 140.50796875 -92.2884375 139.84796875 -93.6484375 139.16796875 C-97.9484375 138.76796875 -97.9484375 138.76796875 -101.6484375 142.16796875 C-101.6484375 132.92796875 -101.6484375 123.68796875 -101.6484375 114.16796875 C-102.6384375 113.83796875 -103.6284375 113.50796875 -104.6484375 113.16796875 C-120.63601707 95.75513983 -125.64974708 73.78614901 -124.83203125 50.7265625 C-124.4135453 44.89447111 -122.72252136 39.62178927 -120.6484375 34.16796875 C-120.10509766 32.61722656 -120.10509766 32.61722656 -119.55078125 31.03515625 C-116.70701389 23.49676277 -112.63426102 17.45667207 -107.6484375 11.16796875 C-106.8646875 10.11609375 -106.0809375 9.06421875 -105.2734375 7.98046875 C-96.42473117 -1.50028803 -83.36978299 -10.52099612 -70.6484375 -13.83203125 C-69.87628906 -14.03441406 -69.10414062 -14.23679687 -68.30859375 -14.4453125 C-44.41726595 -19.48408608 -19.22727699 -15.55815082 0 0 Z M-88.6484375 9.16796875 C-89.37546875 9.75835937 -90.1025 10.34875 -90.8515625 10.95703125 C-102.28167886 20.56679574 -111.41422267 35.4544191 -112.88696289 50.625 C-113.87136369 70.63933674 -110.40120223 88.36871009 -97.2265625 104.05078125 C-85.31956937 116.43849149 -69.38939801 124.99535319 -51.9609375 125.54296875 C-40.92706115 125.22356707 -29.39998842 123.52061646 -19.6484375 118.16796875 C-18.95105469 117.84441406 -18.25367187 117.52085937 -17.53515625 117.1875 C-2.11595673 109.60114429 7.95393333 95.27106478 13.69140625 79.48046875 C18.45941589 63.46267123 17.67587111 46.97903013 10.22998047 31.89599609 C6.15042118 24.4176164 2.09307121 18.48558644 -4.6484375 13.16796875 C-5.46570313 12.32363281 -6.28296875 11.47929687 -7.125 10.609375 C-19.49718202 -1.36061535 -36.42811428 -4.5181913 -53.00830078 -4.44360352 C-66.52713637 -3.98702187 -78.24569224 0.47370355 -88.6484375 9.16796875 Z " fill="#745135" transform="translate(134.6484375,17.83203125)"/>
<path d="M0 0 C-0.66 0.99 -1.32 1.98 -2 3 C-2.66 3 -3.32 3 -4 3 C-5.40821893 5.79740787 -6.79758179 8.60075812 -8.125 11.4375 C-8.65480469 12.54931641 -8.65480469 12.54931641 -9.1953125 13.68359375 C-10.1353126 16.38951637 -10.44605374 18.15982106 -10 21 C-8.18781019 22.98185507 -8.18781019 22.98185507 -5.75 24.5625 C-2.53940658 26.83404731 0.4185931 29.01006769 3 32 C3 32.99 3 33.98 3 35 C3.66 35 4.32 35 5 35 C5.1627727 42.5540873 5.28686114 50.10799101 5.3626852 57.66343689 C5.39909381 61.17257991 5.44840628 64.68051625 5.52807617 68.18896484 C5.61926296 72.23025538 5.65275482 76.27029502 5.68359375 80.3125 C5.71972275 81.5617627 5.75585175 82.81102539 5.79307556 84.09814453 C5.79573569 90.038175 5.6489702 94.03870907 1.69555664 98.66796875 C-6.85185664 107 -6.85185664 107 -11 107 C-9.31291557 115.0506485 -6.8776994 121.1223006 -1 127 C0.51469448 127.23192865 2.03754562 127.41215238 3.5625 127.5625 C4.80193359 127.68818359 4.80193359 127.68818359 6.06640625 127.81640625 C6.70449219 127.87699219 7.34257813 127.93757813 8 128 C8 128.33 8 128.66 8 129 C-10.1617934 130.2175504 -25.39523822 123.63155206 -39 112 C-39.59296875 111.525625 -40.1859375 111.05125 -40.796875 110.5625 C-51.08107861 101.50485278 -58.0380226 85.82020766 -59.23046875 72.40771484 C-60.18838664 56.96661057 -59.39594949 41.31099282 -49 29 C-48.54625 28.195625 -48.0925 27.39125 -47.625 26.5625 C-38.11051757 11.5588931 -18.26042923 -1.4046484 0 0 Z " fill="#23ACB9" transform="translate(81,14)"/>
<path d="M0 0 C0 0.33 0 0.66 0 1 C-4.29 1 -8.58 1 -13 1 C-13 4.3 -13 7.6 -13 11 C-12.01 11.33 -11.02 11.66 -10 12 C-11.43666016 12.00386719 -11.43666016 12.00386719 -12.90234375 12.0078125 C-27.86604351 12.33071539 -41.34427182 16.31981897 -53 26 C-53.65355469 26.51691406 -54.30710938 27.03382812 -54.98046875 27.56640625 C-66.23544434 36.75756968 -72.70376068 50.01211262 -76 64 C-77.91898572 83.76732069 -74.3334339 100.6430981 -63 117 C-51.24962928 131.21314824 -34.39573172 138.81918066 -16.25 140.6875 C-14.14625 140.8421875 -14.14625 140.8421875 -12 141 C-12.33 144.96 -12.66 148.92 -13 153 C-14.65 153 -16.3 153 -18 153 C-18 158.61 -18 164.22 -18 170 C-18.33 170 -18.66 170 -19 170 C-19 164.39 -19 158.78 -19 153 C-21.784375 152.6596875 -21.784375 152.6596875 -24.625 152.3125 C-34.71220378 150.7597754 -44.38856077 147.53592522 -53 142 C-53.33 146.95 -53.66 151.9 -54 157 C-55.32 156.34 -56.64 155.68 -58 155 C-62.3 154.6 -62.3 154.6 -66 158 C-66 148.76 -66 139.52 -66 130 C-66.99 129.67 -67.98 129.34 -69 129 C-84.98757957 111.58717108 -90.00130958 89.61818026 -89.18359375 66.55859375 C-88.7651078 60.72650236 -87.07408386 55.45382052 -85 50 C-84.45666016 48.44925781 -84.45666016 48.44925781 -83.90234375 46.8671875 C-81.05857639 39.32879402 -76.98582352 33.28870332 -72 27 C-71.21625 25.948125 -70.4325 24.89625 -69.625 23.8125 C-60.77629367 14.33174322 -47.72134549 5.31103513 -35 2 C-34.22785156 1.79761719 -33.45570312 1.59523437 -32.66015625 1.38671875 C-21.97112254 -0.86763987 -10.86373576 -0.17949741 0 0 Z " fill="#8A6243" transform="translate(99,2)"/>
<path d="M0 0 C0 0.99 0 1.98 0 3 C0.62390625 3.09539062 1.2478125 3.19078125 1.890625 3.2890625 C4 4 4 4 5.75 7.375 C7.1520356 11.62633376 7.17322656 15.48070384 7.04296875 19.921875 C6.9402464 27.28053096 7.39709132 34.80711569 9 42 C5.30827405 45.53790403 1.90609405 45.59115883 -3 46 C-3 44.68 -3 43.36 -3 42 C-4.39698636 42.28609307 -5.7925433 42.57916905 -7.1875 42.875 C-8.35345703 43.11863281 -8.35345703 43.11863281 -9.54296875 43.3671875 C-12.02779598 43.93213794 -12.02779598 43.93213794 -14.33203125 45.0546875 C-17.809013 46.28664882 -20.81837673 46.26472649 -24.5 46.25 C-26.43359375 46.25773437 -26.43359375 46.25773437 -28.40625 46.265625 C-31.78175443 46.01613119 -34.02678386 45.57179263 -37 44 C-38.3125 41.875 -38.3125 41.875 -39 40 C-39.66 40 -40.32 40 -41 40 C-41.48455482 32.85281647 -41.48455482 32.85281647 -39.4375 29.25 C-36.54377409 26.57886839 -33.48537915 24.76394189 -30 23 C-29.34515625 22.64808594 -28.6903125 22.29617187 -28.015625 21.93359375 C-20.19787397 17.82775939 -12.74025313 16.60059606 -4 16 C-3.67 13.03 -3.34 10.06 -3 7 C-4.32 6.34 -5.64 5.68 -7 5 C-7.721875 4.443125 -8.44375 3.88625 -9.1875 3.3125 C-13.29898269 1.39380808 -16.70328763 1.61706504 -21 3 C-22.94588637 4.46434857 -24.62459085 6.06398834 -26.37109375 7.7578125 C-28 9 -28 9 -31.25 9 C-34 8 -34 8 -37 6 C-37 5.34 -37 4.68 -37 4 C-25.13678627 -3.50763767 -13.10172285 -5.20352113 0 0 Z " fill="#1B3B60" transform="translate(605,82)"/>
<path d="M0 0 C0 1.32 0 2.64 0 4 C0.804375 4.144375 1.60875 4.28875 2.4375 4.4375 C5 5 5 5 6 6 C6.04092937 8.33297433 6.04241723 10.66705225 6 13 C6.66 13 7.32 13 8 13 C7.98839844 13.62003906 7.97679687 14.24007812 7.96484375 14.87890625 C7.63007256 29.09060111 7.63007256 29.09060111 10 43 C2.71428571 47.57142857 2.71428571 47.57142857 -2 47 C-2 45.68 -2 44.36 -2 43 C-3.37589617 43.28740942 -4.75067322 43.58017742 -6.125 43.875 C-7.27355469 44.11863281 -7.27355469 44.11863281 -8.4453125 44.3671875 C-11.08202626 44.97066024 -11.08202626 44.97066024 -13.86328125 46.0546875 C-17.40055106 47.12071402 -20.37361572 47.26605608 -24.0625 47.25 C-25.24972656 47.25515625 -26.43695313 47.2603125 -27.66015625 47.265625 C-30.90866056 47.00726442 -33.12198467 46.49656797 -36 45 C-37.3125 42.875 -37.3125 42.875 -38 41 C-38.66 41 -39.32 41 -40 41 C-40.65896936 36.9638127 -41.04236514 33.48033369 -38.60546875 30.01953125 C-28.73917696 20.91682213 -16.00586457 17.89371221 -3 17 C-2.67 14.03 -2.34 11.06 -2 8 C-3.32 7.34 -4.64 6.68 -6 6 C-6.66 5.34 -7.32 4.68 -8 4 C-12.90341035 2.63160641 -16.287864 3.14880372 -21 5 C-22.04999579 5.86146787 -23.07158584 6.75867968 -24.0625 7.6875 C-27 10 -27 10 -30.1875 9.9375 C-33 9 -33 9 -36 7 C-35 4 -35 4 -33.50390625 2.90234375 C-22.59917457 -2.51711042 -11.62219829 -3.38100314 0 0 Z " fill="#1B3A5F" transform="translate(311,81)"/>
<path d="M0 0 C0.84809201 2.49581362 1.67846921 4.99544125 2.5 7.5 C2.73847656 8.19609375 2.97695313 8.8921875 3.22265625 9.609375 C4.83709006 14.59105646 5.23579709 18.76530467 5 24 C5.66 24 6.32 24 7 24 C15.26162791 39.95348837 15.26162791 39.95348837 14 45 C11.3125 47.375 11.3125 47.375 8 49 C5.125 48.75 5.125 48.75 3 48 C2.1276588 45.00519083 1.89170234 42.36424089 1.9375 39.25 C1.94652344 38.45078125 1.95554687 37.6515625 1.96484375 36.828125 C1.97644531 36.22484375 1.98804688 35.6215625 2 35 C0.68 34.67 -0.64 34.34 -2 34 C-2.05607422 33.07380859 -2.05607422 33.07380859 -2.11328125 32.12890625 C-2.58723416 26.0232776 -3.80600373 20.71266953 -6 15 C-7.42492034 17.70369501 -8.48221564 20.33006999 -9.375 23.25 C-10.3651006 26.35164169 -11.51924095 29.04746776 -13.125 31.875 C-15.66884156 36.67140356 -15.80355711 41.65675343 -16 47 C-19.85463473 48.68801957 -21.90374392 49.2516338 -26 48 C-27 47 -27 47 -27.09765625 44.49609375 C-27.08605469 43.48675781 -27.07445312 42.47742188 -27.0625 41.4375 C-27.05347656 40.42558594 -27.04445313 39.41367188 -27.03515625 38.37109375 C-27.02355469 37.58863281 -27.01195312 36.80617187 -27 36 C-27.66 36 -28.32 36 -29 36 C-30.69857238 28.67349113 -32.38168081 21.34467941 -34 14 C-34.66 14 -35.32 14 -36 14 C-36.103125 15.19625 -36.20625 16.3925 -36.3125 17.625 C-36.55784821 20.47103923 -37.09811992 22.19111819 -38.421875 24.76953125 C-40.53674713 29.09873731 -41.40091667 33.47101906 -42.37304688 38.16601562 C-43.39811084 42.68230163 -44.69133794 45.72296951 -48 49 C-50.75 49.3125 -50.75 49.3125 -53 49 C-53.45365175 43.66959192 -52.53584859 40.2850276 -50.16796875 35.50390625 C-47.85727844 30.550219 -46.11865126 25.36985451 -44.3515625 20.203125 C-43.92617188 18.98302734 -43.92617188 18.98302734 -43.4921875 17.73828125 C-42.91003836 16.06788034 -42.33986097 14.39326283 -41.78125 12.71484375 C-40.04989279 7.82492946 -38.63910513 4.77305483 -34 2 C-31.375 1.4375 -31.375 1.4375 -29 2 C-27.125 4.25 -27.125 4.25 -26 7 C-26.3125 9.3125 -26.3125 9.3125 -27 11 C-26.01 11.33 -25.02 11.66 -24 12 C-22.79286003 15.81202097 -21.97581336 18.88741478 -22.0625 22.875 C-22.041875 23.57625 -22.02125 24.2775 -22 25 C-20.515 25.99 -20.515 25.99 -19 27 C-18.60167969 25.99839844 -18.20335937 24.99679688 -17.79296875 23.96484375 C-17.25785964 22.62237704 -16.72270072 21.27993019 -16.1875 19.9375 C-15.92646484 19.28072266 -15.66542969 18.62394531 -15.39648438 17.94726562 C-9.87859273 4.11847546 -9.87859273 4.11847546 -7 1 C-4 0 -4 0 0 0 Z " fill="#1A3A5F" transform="translate(544,79)"/>
<path d="M0 0 C3.10017921 3.10017921 1.63590242 8.63082901 2 13 C10.25 13.33 18.5 13.66 27 14 C26.34 11.03 25.68 8.06 25 5 C29.19921875 0.99609375 29.19921875 0.99609375 31 0 C32.67630534 0.28087239 34.34558664 0.61037796 36 1 C35.99476318 1.73114014 35.98952637 2.46228027 35.98413086 3.21557617 C35.96329839 6.53954198 35.95031986 9.86349403 35.9375 13.1875 C35.92493164 14.91323242 35.92493164 14.91323242 35.91210938 16.67382812 C35.90888672 17.78564453 35.90566406 18.89746094 35.90234375 20.04296875 C35.89710693 21.06414795 35.89187012 22.08532715 35.88647461 23.13745117 C35.99514031 25.87746254 36.4141463 28.32770442 37 31 C37.42731564 35.72210833 37.6074618 40.28930568 37 45 C34.3125 47.9375 34.3125 47.9375 31 49 C28.125 48.75 28.125 48.75 26 48 C25.87493867 41.4968106 25.87493867 41.4968106 26.49780273 39.02246094 C27.02592812 36.89558165 27.11422822 35.07812491 27.09765625 32.890625 C27.09443359 32.13652344 27.09121094 31.38242188 27.08789062 30.60546875 C27.07951172 29.82816406 27.07113281 29.05085938 27.0625 28.25 C27.05798828 27.45722656 27.05347656 26.66445312 27.04882812 25.84765625 C27.03708565 23.89840492 27.01915146 21.94919262 27 20 C23.82946805 19.08341617 20.87176138 18.81167961 17.578125 18.68359375 C16.04091797 18.62075195 16.04091797 18.62075195 14.47265625 18.55664062 C13.40917969 18.51732422 12.34570312 18.47800781 11.25 18.4375 C10.17105469 18.39431641 9.09210937 18.35113281 7.98046875 18.30664062 C5.32043572 18.20071011 2.66031188 18.09863579 0 18 C0.16298584 18.71115967 0.32597168 19.42231934 0.49389648 20.1550293 C1.00277656 23.01560796 1.11387043 25.61719358 1.09765625 28.51953125 C1.09443359 29.54111328 1.09121094 30.56269531 1.08789062 31.61523438 C1.07951172 32.67033203 1.07113281 33.72542969 1.0625 34.8125 C1.05798828 35.88693359 1.05347656 36.96136719 1.04882812 38.06835938 C1.03707729 40.71229683 1.02064787 43.35611952 1 46 C-2.72965139 48.03435531 -4.66905042 49 -9 49 C-9.05797565 45.06256167 -9.09358789 41.12523281 -9.125 37.1875 C-9.14175781 36.06794922 -9.15851562 34.94839844 -9.17578125 33.79492188 C-9.18222656 32.72177734 -9.18867187 31.64863281 -9.1953125 30.54296875 C-9.20578613 29.55321045 -9.21625977 28.56345215 -9.22705078 27.54370117 C-9 25 -9 25 -7 22 C-7.66 22 -8.32 22 -9 22 C-8.98259766 20.80503906 -8.98259766 20.80503906 -8.96484375 19.5859375 C-8.86570615 13.00039479 -8.86570615 13.00039479 -9.75 6.5 C-10 4 -10 4 -8.4375 1.625 C-5.3980349 -0.40131007 -3.58545144 -0.39838349 0 0 Z " fill="#1C3C60" transform="translate(636,79)"/>
<path d="M0 0 C0.10808032 7.09727428 -0.06145994 13.96094956 -1 21 C-1.66 21 -2.32 21 -3 21 C-3 21.99 -3 22.98 -3 24 C-2.34 24 -1.68 24 -1 24 C-0.95101562 24.76183594 -0.90203125 25.52367188 -0.8515625 26.30859375 C-0.38661304 32.72970616 0.43860343 38.75441373 2 45 C-3.29230769 48.07692308 -3.29230769 48.07692308 -6.875 47.6875 C-7.57625 47.460625 -8.2775 47.23375 -9 47 C-9 45.35 -9 43.7 -9 42 C-10.7325 42.928125 -10.7325 42.928125 -12.5 43.875 C-19.66616313 47.42659579 -26.04358508 48.33151729 -34 48 C-34 47.34 -34 46.68 -34 46 C-35.60875 46.1546875 -35.60875 46.1546875 -37.25 46.3125 C-41 46 -41 46 -43.375 44.1875 C-47.64054218 35.82047496 -46.12421191 24.46959794 -46.0625 15.3125 C-46.05798828 14.02666016 -46.05347656 12.74082031 -46.04882812 11.41601562 C-46.03716001 8.27729347 -46.02079015 5.13867272 -46 2 C-42.5980513 -0.09350689 -39.94727588 -0.17942163 -36 0 C-36.00523682 0.93271729 -36.01047363 1.86543457 -36.01586914 2.82641602 C-36.03299302 6.31340157 -36.04548993 9.8003419 -36.05493164 13.28735352 C-36.05993555 14.7915925 -36.06674073 16.29582668 -36.07543945 17.80004883 C-36.08767884 19.97218009 -36.09326786 22.14424659 -36.09765625 24.31640625 C-36.10289307 25.62037354 -36.10812988 26.92434082 -36.11352539 28.26782227 C-36.00145975 31.95201033 -35.59374786 35.36971466 -35 39 C-29.41733555 41.8813752 -23.76881873 41.53246514 -17.75 40.375 C-14.24037543 38.62018772 -11.99271993 36.33543209 -10 33 C-9.31767928 29.33835195 -9.31767928 29.33835195 -9.51171875 25.4140625 C-9.51879349 24.71227875 -9.52586823 24.010495 -9.53315735 23.28744507 C-9.56094903 21.06550409 -9.62364566 18.84616735 -9.6875 16.625 C-9.71260314 15.11071372 -9.73541278 13.59638757 -9.75585938 12.08203125 C-9.81072154 8.3871874 -9.89688192 4.69384825 -10 1 C-6.13516607 -0.70182603 -4.11574366 -1.17592676 0 0 Z " fill="#1A395E" transform="translate(428,80)"/>
<path d="M0 0 C0.70463379 0.01240723 1.40926758 0.02481445 2.13525391 0.03759766 C19.69327418 0.42742587 19.69327418 0.42742587 27.3125 2.375 C37.58559667 4.68260075 49.2992757 2.63227659 59.625 1.25 C58.68328332 3.81831821 58.00527893 5.02420939 55.625 6.4375 C46.84022727 8.81670928 37.65081848 8.36704952 28.625 8.25 C28.625 12.21 28.625 16.17 28.625 20.25 C27.965 20.25 27.305 20.25 26.625 20.25 C27.285 21.24 27.945 22.23 28.625 23.25 C28.82350603 26.95544587 28.80164871 29.72005387 27.625 33.25 C27.95477281 34.58421842 28.28897809 35.91734169 28.625 37.25 C28.74401137 39.72709707 28.80021098 42.20757609 28.8125 44.6875 C28.82667969 45.98558594 28.84085938 47.28367188 28.85546875 48.62109375 C28.64057702 52.00472799 28.09666218 54.23105663 26.625 57.25 C27.285 57.25 27.945 57.25 28.625 57.25 C28.91027753 60.62895391 29.05913758 63.88000704 28.625 67.25 C26.00904484 69.79121358 24.56328237 70.23082343 20.94921875 70.3046875 C20.18222656 70.28664063 19.41523438 70.26859375 18.625 70.25 C18.51301404 64.2649727 18.67253587 58.3870239 19.19140625 52.421875 C19.78237864 43.89124879 19.27431839 35.57525503 18.625 27.0625 C18.46076196 24.85084157 18.29961732 22.63910377 18.14599609 20.42668152 C18.00815693 18.44906122 17.85987479 16.47217679 17.7109375 14.49536133 C17.63850229 11.75990311 17.76291434 9.8149461 18.625 7.25 C17.75617188 7.18941406 16.88734375 7.12882812 15.9921875 7.06640625 C14.83976562 6.98261719 13.68734375 6.89882812 12.5 6.8125 C11.36304688 6.73128906 10.22609375 6.65007812 9.0546875 6.56640625 C5.625 6.25 5.625 6.25 2.3828125 5.65625 C-1.06348848 5.1485796 -3.12066813 6.09742413 -6.375 7.25 C-9.75 7.375 -9.75 7.375 -12.375 7.25 C-12.0253355 4.71493239 -11.59778197 3.47772049 -9.7890625 1.62890625 C-6.42294005 -0.29381418 -3.85810868 -0.07579781 0 0 Z " fill="#1C3B60" transform="translate(206.375,57.75)"/>
<path d="M0 0 C0.95130265 1.90260531 1.90174339 3.80564683 2.84765625 5.7109375 C3.58872565 7.1830279 4.34537694 8.64743134 5.12109375 10.1015625 C7.25327257 14.14723514 8.24322885 17.45937312 9 22 C9.99 22.66 10.98 23.32 12 24 C12.7734375 25.8125 12.7734375 25.8125 13.375 28 C14.75448602 32.61568564 16.81104745 36.57047749 19.20703125 40.73828125 C20 43 20 43 19.32421875 45.16796875 C18 47 18 47 15 49 C11.8125 49.125 11.8125 49.125 9 49 C8.78085937 48.319375 8.56171875 47.63875 8.3359375 46.9375 C6.78040337 42.18237128 5.19162129 37.45246186 3.3984375 32.78125 C3.12596191 32.07097656 2.85348633 31.36070313 2.57275391 30.62890625 C2.03142089 29.228187 1.48436776 27.82966271 0.93115234 26.43359375 C-0.3879227 23.02011596 -1 20.7183955 -1 17 C-1.99 16.67 -2.98 16.34 -4 16 C-4.6875 13.9375 -4.6875 13.9375 -5 12 C-5.66 12 -6.32 12 -7 12 C-7.0928125 12.99 -7.0928125 12.99 -7.1875 14 C-8.13957453 17.51535213 -9.76889668 19.94239977 -11.73828125 22.97265625 C-14.0395554 26.67036921 -15.53543448 30.62972692 -16.9296875 34.7421875 C-17.26226562 35.71414062 -17.59484375 36.68609375 -17.9375 37.6875 C-18.23527344 38.59886719 -18.53304688 39.51023438 -18.83984375 40.44921875 C-20.15953629 43.35076497 -21.530883 44.99587679 -24 47 C-27.25 47.25 -27.25 47.25 -30 47 C-28.43643403 41.63061136 -26.01029922 36.96065999 -23.375 32.0625 C-22.71165649 30.81702393 -22.71165649 30.81702393 -22.03491211 29.54638672 C-21.13018446 27.84874257 -20.22353219 26.15212268 -19.31494141 24.45654297 C-18.09290392 22.17356094 -16.87863728 19.88668266 -15.66796875 17.59765625 C-6.34401023 0 -6.34401023 0 0 0 Z " fill="#1C3B60" transform="translate(355,79)"/>
<path d="M0 0 C1.06734375 0.0009668 1.06734375 0.0009668 2.15625 0.00195312 C5.56855376 0.0306012 8.73882668 0.12592014 12 1.1875 C12.12117188 2.09371094 12.24234375 2.99992187 12.3671875 3.93359375 C13.30799951 10.77257339 14.38006945 17.47635916 16 24.1875 C15.21496094 24.36925781 14.42992188 24.55101563 13.62109375 24.73828125 C6.67732924 26.34994786 6.67732924 26.34994786 0.0625 28.9375 C-3.39837942 30.35010385 -4.52083577 30.36347919 -8 29.1875 C-9.73046875 27.26171875 -9.73046875 27.26171875 -11.1875 24.875 C-11.67605469 24.09511719 -12.16460937 23.31523438 -12.66796875 22.51171875 C-15.45452131 17.64955226 -16.90344559 13.91666713 -16 8.1875 C-12.0673963 0.60319287 -8.11934888 -0.13973517 0 0 Z " fill="#F9FCFD" transform="translate(45,39.8125)"/>
<path d="M0 0 C0.67675781 0.28746094 1.35351562 0.57492188 2.05078125 0.87109375 C2.82035156 1.16886719 3.58992188 1.46664062 4.3828125 1.7734375 C5.61064453 2.28583984 5.61064453 2.28583984 6.86328125 2.80859375 C10.88689166 4.44784244 14.84930915 5.77505755 19.05078125 6.87109375 C18.91800781 7.45375 18.78523438 8.03640625 18.6484375 8.63671875 C17.19984249 15.36158317 16.49867468 22.01125233 16.05078125 28.87109375 C9.79414081 31.14623573 3.67463085 31.61627683 -2.94921875 30.87109375 C-7.40782617 28.75912182 -10.07076408 26.46287183 -11.94921875 21.87109375 C-12.9523512 15.29500326 -11.15097203 11.71629844 -7.65234375 6.16796875 C-2.93489776 -0.19409144 -2.93489776 -0.19409144 0 0 Z " fill="#F9FDFD" transform="translate(40.94921875,86.12890625)"/>
<path d="M0 0 C4.25443902 0.12975015 6.94384399 0.99122498 10.2421875 3.68359375 C14.62059978 8.57390996 17.29698319 14.90762044 17.8125 21.4375 C17.24402344 21.78941406 16.67554687 22.14132813 16.08984375 22.50390625 C10.67009655 25.96928718 6.16651166 29.70548733 1.8125 34.4375 C-1.83734816 32.87932816 -4.3560954 30.62625601 -7.25 27.9375 C-9.84670335 25.53213269 -12.23856306 23.40345796 -15.1875 21.4375 C-14.3628512 13.35594174 -12.28637383 7.91084831 -6.1875 2.4375 C-3.83891908 0.08891908 -3.2117268 0.09397479 0 0 Z " fill="#F9FCFC" transform="translate(85.1875,13.5625)"/>
<path d="M0 0 C2.68050073 1.05305386 3.9371087 1.91614494 5.6875 4.25 C7.96607717 6.95965934 9.75273973 8.15040116 12.75 9.9375 C16.90147453 12.61410858 16.90147453 12.61410858 17.75 15.9375 C15.86624074 23.62951698 12.66115317 29.55923122 6 34 C1.60488723 34.77966679 -3.05085337 35.27291208 -6.9140625 32.75 C-11.19913616 28.00345687 -14.35630497 21.78024538 -15.4296875 15.4765625 C-15 13 -15 13 -12.734375 10.9375 C-11.25710937 9.9784375 -11.25710937 9.9784375 -9.75 9 C-5.7218185 6.35717193 -2.84751163 3.9051588 0 0 Z " fill="#F9FCFD" transform="translate(85,108)"/>
<path d="M0 0 C1.75390625 1.828125 1.75390625 1.828125 3.5625 4.25 C4.46162109 5.43335937 4.46162109 5.43335937 5.37890625 6.640625 C9.16854978 12.15615438 9.65685033 16.36688849 9 23 C7.5932555 27.13231198 6.36160266 27.81602672 2.4375 29.8125 C-4.65303711 32.11072197 -11.07925858 31.51754507 -18 29 C-18.12117188 28.0821875 -18.24234375 27.164375 -18.3671875 26.21875 C-19.25835802 19.69263976 -20.22333987 13.34521474 -22 7 C-20.96359375 6.66226563 -19.9271875 6.32453125 -18.859375 5.9765625 C-17.4895304 5.52620263 -16.11974166 5.07567286 -14.75 4.625 C-14.06808594 4.40328125 -13.38617188 4.1815625 -12.68359375 3.953125 C-9.9379789 3.04680553 -7.28553345 2.14470913 -4.703125 0.8359375 C-3 0 -3 0 0 0 Z " fill="#F9FCFD" transform="translate(134,86)"/>
<path d="M0 0 C1.19367188 -0.01675781 2.38734375 -0.03351562 3.6171875 -0.05078125 C8.36351255 0.44076466 11.62165241 1.76774665 14.96875 5.20703125 C17.11730844 9.11944003 16.79660832 12.99139739 16.125 17.3125 C13.85227189 23.47023343 10.3926289 27.51490707 5.125 31.3125 C4.43535156 30.97476563 3.74570313 30.63703125 3.03515625 30.2890625 C-2.92411885 27.46065484 -8.38292203 25.48320258 -14.875 24.3125 C-14.67003906 23.47847656 -14.46507813 22.64445312 -14.25390625 21.78515625 C-12.39531708 14.02809889 -12.39531708 14.02809889 -11.4375 6.125 C-10.875 2.3125 -10.875 2.3125 -9.26953125 1.09375 C-6.10878831 0.0625125 -3.32271862 0.01071845 0 0 Z " fill="#FAFCFD" transform="translate(126.875,39.6875)"/>
<path d="M0 0 C0.91330078 0.06574219 1.82660156 0.13148437 2.76757812 0.19921875 C4.99332069 0.36236218 7.21517638 0.54619354 9.4375 0.75 C7.83891935 4.10122052 6.82486448 6.00730445 3.4375 7.75 C-0.3192548 8.11052573 -4.07034062 7.81690829 -7.83203125 7.6328125 C-12.88948185 7.48134143 -16.17014652 7.91729859 -20.5625 10.75 C-24.94583227 15.60720603 -25.87413229 18.20572182 -25.5625 24.75 C-25.02524536 29.3089894 -24.57966871 32.7045766 -21.3125 36.0625 C-20.405 36.619375 -19.4975 37.17625 -18.5625 37.75 C-17.675625 38.471875 -16.78875 39.19375 -15.875 39.9375 C-11.41194567 42.37954859 -7.64311958 43.20375958 -2.5625 42.75 C1.74410819 41.25761102 5.85420614 39.40684541 9.03515625 36.078125 C10.4375 34.75 10.4375 34.75 13.4375 34.75 C13.75 37 13.75 37 13.4375 39.75 C9.33178389 44.5635982 3.31844401 45.32073033 -2.5625 46.75 C-4.0475 47.245 -4.0475 47.245 -5.5625 47.75 C-13.48123941 48.32590832 -22.82773846 47.40951243 -29.1875 42.25 C-33.14192966 38.08744246 -34.02409212 35.40328278 -34.5625 29.75 C-34.63984375 28.95851563 -34.7171875 28.16703125 -34.796875 27.3515625 C-35.09812061 21.91240568 -34.50561476 18.1621432 -31.3046875 13.6953125 C-22.52068349 3.88716452 -13.12775341 -1.21357075 0 0 Z " fill="#1B3A5F" transform="translate(474.5625,80.25)"/>
<path d="M0 0 C0.33 0 0.66 0 1 0 C1.01401855 1.21731812 1.01401855 1.21731812 1.02832031 2.45922852 C1.0822323 6.16092047 1.16584199 9.8613772 1.25 13.5625 C1.26417969 14.83931641 1.27835938 16.11613281 1.29296875 17.43164062 C1.47899891 24.59380192 1.93896588 29.09520871 6 35 C7.14924289 39.6110727 6.87929978 43.44017831 4.53125 47.60546875 C-0.02274735 53.67424912 -0.02274735 53.67424912 -4 55 C-4 55.66 -4 56.32 -4 57 C-7.73724772 56.44846785 -9.2235991 55.03850239 -11.625 52.1875 C-12.21539062 51.50042969 -12.80578125 50.81335938 -13.4140625 50.10546875 C-16.17351395 46.44205907 -17.30314755 43.73792721 -17.375 39.125 C-17.40335937 38.30257812 -17.43171875 37.48015625 -17.4609375 36.6328125 C-17 34 -17 34 -14.9921875 31.265625 C-12.33122654 26.90373605 -12.54310958 23.61424212 -12.75 18.625 C-12.76804687 17.79355469 -12.78609375 16.96210938 -12.8046875 16.10546875 C-12.85148427 14.06980926 -12.92321702 12.0347491 -13 10 C-12.34 10 -11.68 10 -11 10 C-10.67 14.95 -10.34 19.9 -10 25 C-9.01 24.01 -8.02 23.02 -7 22 C-6.01 22 -5.02 22 -4 22 C-2.68 23.32 -1.36 24.64 0 26 C0 17.42 0 8.84 0 0 Z " fill="#E7AF60" transform="translate(139,133)"/>
<path d="M0 0 C0.33 0 0.66 0 1 0 C1.02578125 1.30195313 1.0515625 2.60390625 1.078125 3.9453125 C1.13442701 5.67190756 1.19177387 7.39846876 1.25 9.125 C1.26417969 9.9809375 1.27835938 10.836875 1.29296875 11.71875 C1.51115529 17.39159992 2.54585841 20.34029527 6 25 C7.04352558 29.32317739 6.89215275 33.31929934 4.7890625 37.28125 C3.29552069 39.31307337 1.71734335 41.15544603 0 43 C-1.0209375 44.2684375 -1.0209375 44.2684375 -2.0625 45.5625 C-4 47 -4 47 -6.38671875 46.8359375 C-9.5425335 45.82645416 -10.66966294 44.60769114 -12.75 42.0625 C-13.34296875 41.35222656 -13.9359375 40.64195312 -14.546875 39.91015625 C-18.14829078 35.17603712 -17.76701906 29.72038512 -17 24 C-15.44515809 20.84979912 -13.45549369 18.49142774 -11 16 C-10.21625 15.175 -9.4325 14.35 -8.625 13.5 C-8.08875 13.005 -7.5525 12.51 -7 12 C-4.50638429 13.20381448 -2.31856917 14.45428722 0 16 C0 10.72 0 5.44 0 0 Z " fill="#E9B160" transform="translate(92,155)"/>
<path d="M0 0 C5.90611569 2.40619528 10.07467461 7.47438537 13 13 C13.56482186 17.05573478 13.30001387 21.09995838 12 25 C11.34 25 10.68 25 10 25 C9.690625 26.0828125 9.690625 26.0828125 9.375 27.1875 C7.54751837 30.9255306 5.29561194 32.49246917 2 35 C-3.97402266 32.99834128 -7.11318807 29.54107513 -10 24 C-11.1207253 18.91003926 -11.17495212 14.308612 -8.77734375 9.59765625 C-7.30043608 7.56926899 -5.75993482 5.78568997 -4 4 C-3.21625 3.175 -2.4325 2.35 -1.625 1.5 C-0.820625 0.7575 -0.820625 0.7575 0 0 Z " fill="#FAC671" transform="translate(38,155)"/>
<path d="M0 0 C0.77596659 10.81180116 0.77596659 10.81180116 -2 15.0625 C-8.35074707 19.16402415 -14.39676931 21.05902142 -22 20 C-24.51101615 19.1968441 -26.63963132 18.20529464 -29 17 C-29.96521535 13.89299291 -30.4578853 11.24121057 -30 8 C-21.99348669 -1.87408339 -11.55467548 -1.18591676 0 0 Z " fill="#F6F8F9" transform="translate(310,104)"/>
<path d="M0 0 C1.15242187 0.10183594 2.30484375 0.20367187 3.4921875 0.30859375 C4.36101563 0.39238281 5.22984375 0.47617188 6.125 0.5625 C6.73890176 11.25462234 6.73890176 11.25462234 4.6875 15.625 C1.07260734 18.35821152 -2.50269009 19.5001371 -6.875 20.5625 C-7.90560547 20.83126953 -7.90560547 20.83126953 -8.95703125 21.10546875 C-14.63279992 22.23614456 -18.18164368 20.47088304 -22.875 17.5625 C-23.51060066 14.05257188 -23.70647381 11.05063402 -22.875 7.5625 C-16.37797294 0.51146288 -9.22120088 -0.84684498 0 0 Z " fill="#F8F9FA" transform="translate(596.875,103.4375)"/>
<path d="M0 0 C0 10.89 0 21.78 0 33 C-5.23018275 29.86189035 -8.3460676 27.474283 -11 22 C-12.03469229 16.89506122 -12.11289692 12.26146362 -9.78125 7.5234375 C-7.50044908 4.32333417 -4.40432918 0 0 0 Z " fill="#FAC570" transform="translate(86,169)"/>
<path d="M0 0 C8 6 8 6 10 8 C10.14497985 10.58064129 10.18677545 13.04943884 10.125 15.625 C10.11597656 16.33140625 10.10695313 17.0378125 10.09765625 17.765625 C10.07407603 19.51056098 10.03820461 21.25532295 10 23 C9.0925 22.79375 8.185 22.5875 7.25 22.375 C3.74725253 21.67071632 3.74725253 21.67071632 0 24 C0 16.08 0 8.16 0 0 Z " fill="#724D2F" transform="translate(34,134)"/>
<path d="M0 0 C0 7.26 0 14.52 0 22 C-1.98 21.67 -3.96 21.34 -6 21 C-8.36290685 22.31135412 -8.36290685 22.31135412 -10 24 C-11.3775904 8.88052022 -11.3775904 8.88052022 -8.03125 4.3125 C-2.353125 0 -2.353125 0 0 0 Z " fill="#533522" transform="translate(138,135)"/>
<path d="M0 0 C3.3 0 6.6 0 10 0 C10 4.95 10 9.9 10 15 C8.02 14.34 6.04 13.68 4 13 C2.68 13.99 1.36 14.98 0 16 C0 10.72 0 5.44 0 0 Z " fill="#714C2F" transform="translate(81,155)"/>
<path d="M0 0 C-0.94325065 2.57250176 -1.57853789 3.76630992 -4.0078125 5.11328125 C-8.10388879 6.32713154 -11.93806586 6.32945704 -16.1875 6.3125 C-17.00669922 6.32861328 -17.82589844 6.34472656 -18.66992188 6.36132812 C-21.04296875 6.36328125 -21.04296875 6.36328125 -25 6 C-25.66 5.01 -26.32 4.02 -27 3 C-22.5729559 1.64131639 -17.98973578 1.63213876 -13.40039062 1.39453125 C-8.76777995 1.1277076 -4.64128919 -0.12544025 0 0 Z " fill="#234165" transform="translate(266,59)"/>
<path d="M0 0 C0.66 0 1.32 0 2 0 C3.03364037 3.12355556 3.45142049 5.72480031 3 9 C0.16512667 13.2345179 -3.37067561 17.6853378 -8 20 C-7.39269504 12.86416677 -5.0650378 5.29526679 0 0 Z " fill="#E6F6F7" transform="translate(77,88)"/>
<path d="M0 0 C0.66 0.33 1.32 0.66 2 1 C0.68 4.63 -0.64 8.26 -2 12 C-2.845625 11.855625 -3.69125 11.71125 -4.5625 11.5625 C-8.03593149 10.9941203 -11.51445662 10.48797607 -15 10 C-10.8687271 5.18018162 -5.96000986 2.2152249 0 0 Z " fill="#E6EDEC" transform="translate(61,18)"/>
<path d="M0 0 C0.66 0.66 1.32 1.32 2 2 C0.6875 4 0.6875 4 -2 6 C-7.90542092 6.79230296 -13.49594975 6.38012984 -19 4 C-18.67 3.34 -18.34 2.68 -18 2 C-12.11744564 0.07480039 -6.18590007 -0.78186097 0 0 Z " fill="#EAF7F8" transform="translate(71,75)"/>
<path d="M0 0 C3.53264443 1.4582881 5.35982394 3.30823263 7.6875 6.3125 C8.28949219 7.07175781 8.89148438 7.83101562 9.51171875 8.61328125 C11.08115514 11.13014642 11.61247182 13.08062107 12 16 C9.23723823 15.47731534 6.6739124 14.89130413 4 14 C1.3655219 9.73549365 -0.65499928 5.0762444 0 0 Z " fill="#E9F7F8" transform="translate(70,50)"/>
<path d="M0 0 C5.23725835 0.52372583 5.23725835 0.52372583 8 2 C10.85283183 6.45167164 12 10.74562578 12 16 C7.13175994 13.93468604 4.75868736 10.38144463 2 6 C0.625 2.5 0.625 2.5 0 0 Z " fill="#ECF5F8" transform="translate(91,91)"/>
<path d="M0 0 C1.75070517 0.11470137 3.50057536 0.24219028 5.25 0.375 C6.22453125 0.44460937 7.1990625 0.51421875 8.203125 0.5859375 C10.89633189 0.98465249 12.66963279 1.63507063 15 3 C11.9896755 6.0103245 9.77096379 5.97819673 5.546875 6.09765625 C3.66742188 6.08025391 3.66742188 6.08025391 1.75 6.0625 C0.48671875 6.05347656 -0.7765625 6.04445313 -2.078125 6.03515625 C-3.04234375 6.02355469 -4.0065625 6.01195313 -5 6 C-4.34 5.01 -3.68 4.02 -3 3 C-2.34 3 -1.68 3 -1 3 C-0.67 2.01 -0.34 1.02 0 0 Z " fill="#F1F7FA" transform="translate(104,75)"/>
<path d="M0 0 C2.66666667 2.66666667 5.33333333 5.33333333 8 8 C6.45594148 13.40420481 4.92956455 13.89202954 0 18 C0 12.06 0 6.12 0 0 Z " fill="#EDF8F8" transform="translate(22,69)"/>
<path d="M0 0 C0.50615298 1.26839526 1.00469099 2.53983102 1.5 3.8125 C1.7784375 4.52019531 2.056875 5.22789062 2.34375 5.95703125 C3 8 3 8 3 11 C-1.94941452 9.1075768 -6.58522262 6.94318492 -11 4 C-11 3.34 -11 2.68 -11 2 C-7.12315913 0.80712589 -4.08378077 0 0 0 Z " fill="#E8F2F2" transform="translate(59,127)"/>
<path d="M0 0 C1.49830174 4.49490521 -0.21887405 7.74267455 -2 12 C-3.19216014 14.23871294 -4.40924346 15.99872565 -6 18 C-6.66 18 -7.32 18 -8 18 C-9.67801238 12.24681471 -9.67801238 12.24681471 -7.8359375 8.859375 C-5.43846915 5.670624 -2.85400015 2.78522906 0 0 Z " fill="#F3F9FB" transform="translate(102,49)"/>
<path d="M0 0 C0.66 0 1.32 0 2 0 C2 5.28 2 10.56 2 16 C-2.0084034 13.9957983 -3.41409657 12.50944037 -6 9 C-4.4722133 5.56247993 -2.49818944 2.81046312 0 0 Z " fill="#EAEBE9" transform="translate(149,70)"/>
<path d="M0 0 C1.92154764 0.9063904 3.83706654 1.82556804 5.75 2.75 C7.35101563 3.51570313 7.35101563 3.51570313 8.984375 4.296875 C12 6 12 6 16 10 C10.06 10.495 10.06 10.495 4 11 C0 2.25 0 2.25 0 0 Z " fill="#F2F3F2" transform="translate(110,18)"/>
<path d="M0 0 C3.63 0.66 7.26 1.32 11 2 C7.44005237 6.17906895 2.91336946 8.68559431 -2 11 C-2.66 11 -3.32 11 -4 11 C-3.71125 10.29875 -3.4225 9.5975 -3.125 8.875 C-1.97866412 5.94547497 -0.97374346 2.99078347 0 0 Z " fill="#EEF3F4" transform="translate(114,127)"/>
<path d="M0 0 C1.65 0 3.3 0 5 0 C5 4.95 5 9.9 5 15 C1 13 1 13 0 12 C-0.07244053 9.98035801 -0.08377188 7.95832876 -0.0625 5.9375 C-0.05347656 4.83277344 -0.04445313 3.72804687 -0.03515625 2.58984375 C-0.02355469 1.73519531 -0.01195313 0.88054687 0 0 Z " fill="#553723" transform="translate(86,155)"/>
<path d="M0 0 C0.99 0 1.98 0 3 0 C3.3125 2.25 3.3125 2.25 3 5 C-0.35645009 8.55388833 -3.18720039 9.55229771 -8 10 C-7.875 7.75 -7.875 7.75 -7 5 C-4 2.75 -4 2.75 -1 1 C-0.67 0.67 -0.34 0.34 0 0 Z " fill="#224064" transform="translate(485,115)"/>
<path d="M0 0 C0.66 0.33 1.32 0.66 2 1 C0.95199219 2.03060547 0.95199219 2.03060547 -0.1171875 3.08203125 C-1.02726562 3.98308594 -1.93734375 4.88414063 -2.875 5.8125 C-3.77992187 6.70582031 -4.68484375 7.59914063 -5.6171875 8.51953125 C-8.09831514 10.95638333 -8.09831514 10.95638333 -10 14 C-10.66 14 -11.32 14 -12 14 C-10.57910701 10.84717276 -8.84968149 8.46222036 -6.5625 5.875 C-5.96566406 5.19179688 -5.36882813 4.50859375 -4.75390625 3.8046875 C-3 2 -3 2 0 0 Z " fill="#2FA0A7" transform="translate(45,28)"/>
<path d="M0 0 C0.66 0.33 1.32 0.66 2 1 C0.7315625 1.804375 0.7315625 1.804375 -0.5625 2.625 C-4.30774716 5.10991339 -7.64327872 8.02066159 -11 11 C-9.56179187 5.96627156 -7.09754485 4.01044111 -3 1 C-2.01 0.67 -1.02 0.34 0 0 Z " fill="#304C6E" transform="translate(575,105)"/>
<path d="M0 0 C0.66 0.33 1.32 0.66 2 1 C-1.3 4.3 -4.6 7.6 -8 11 C-8.66 10.67 -9.32 10.34 -10 10 C-6.66666667 6.66666667 -3.33333333 3.33333333 0 0 Z " fill="#2C496B" transform="translate(453,85)"/>
<path d="M0 0 C-1.28965176 1.37562854 -2.62689293 2.70766393 -4 4 C-4.66 4 -5.32 4 -6 4 C-6 3.34 -6 2.68 -6 2 C-7.98 2 -9.96 2 -12 2 C-12 1.67 -12 1.34 -12 1 C-3.96428571 -1.27678571 -3.96428571 -1.27678571 0 0 Z " fill="#365172" transform="translate(596,123)"/>
<path d="M0 0 C0 1.32 0 2.64 0 4 C-1.65 4.66 -3.3 5.32 -5 6 C-5.33 4.68 -5.66 3.36 -6 2 C-2.25 0 -2.25 0 0 0 Z " fill="#284669" transform="translate(583,102)"/>
<path d="M0 0 C0 0.33 0 0.66 0 1 C-3.3 1.66 -6.6 2.32 -10 3 C-9.67 2.01 -9.34 1.02 -9 0 C-5.8033 -1.37001429 -3.30096158 -0.8252404 0 0 Z " fill="#14345A" transform="translate(296,103)"/>
<path d="M0 0 C0.33 0.99 0.66 1.98 1 3 C0.01 3.33 -0.98 3.66 -2 4 C-2 3.34 -2 2.68 -2 2 C-4.97 2 -7.94 2 -11 2 C-11 1.67 -11 1.34 -11 1 C-9.54182203 0.83197949 -8.0834516 0.66562857 -6.625 0.5 C-5.81289063 0.4071875 -5.00078125 0.314375 -4.1640625 0.21875 C-2 0 -2 0 0 0 Z " fill="#47607E" transform="translate(299,123)"/>
<path d="M0 0 C1 3 1 3 0.0625 5.1875 C-0.4634375 6.0846875 -0.4634375 6.0846875 -1 7 C-1.33 6.34 -1.66 5.68 -2 5 C-3.98 5.99 -3.98 5.99 -6 7 C-4.02 4.69 -2.04 2.38 0 0 Z " fill="#DAECF2" transform="translate(102,49)"/>
<path d="M0 0 C0.66 0.33 1.32 0.66 2 1 C0.576875 1.928125 0.576875 1.928125 -0.875 2.875 C-3.94445109 4.81970969 -3.94445109 4.81970969 -6 7 C-6 5.68 -6 4.36 -6 3 C-4.03533587 1.93224776 -2.03144641 0.93446535 0 0 Z " fill="#395474" transform="translate(282,82)"/>
</svg>
